<?xml version="1.0" encoding="UTF-8"?>
<svg version="1.1" xmlns="http://www.w3.org/2000/svg" width="280" height="280">
<path d="M0 0 C0.99 0 1.98 0 3 0 C3 0.66 3 1.32 3 2 C3.66 2 4.32 2 5 2 C9.57667759 11.04380704 14.05818732 20.1179254 18.296875 29.32592773 C19.66066358 32.26606633 21.02347745 35.0379985 22.73046875 37.80078125 C24 40 24 40 24 43 C24.66 43 25.32 43 26 43 C26.28609131 43.6077124 26.57218262 44.2154248 26.86694336 44.84155273 C31.97558128 55.66974375 37.12886475 66.4457073 42.79248047 76.99584961 C48.13547085 86.95084803 53.11933033 97.06505127 57.875 107.3125 C61.065938 114.17616049 64.51359271 120.87415517 68.07324219 127.55297852 C71.36017702 133.73569543 74.51281578 139.97769379 77.625 146.25 C81.03183662 153.1116986 84.51123506 159.91797391 88.15063477 166.65893555 C91.23698026 172.3934368 94.14741409 178.21034664 97.03515625 184.046875 C98.35508634 186.71443987 99.69713191 189.36902079 101.05859375 192.015625 C101.54863892 192.97456665 101.54863892 192.97456665 102.04858398 193.95288086 C102.9455457 195.70606469 103.84760955 197.45663548 104.75 199.20703125 C106 202 106 202 106 205 C106.66 205 107.32 205 108 205 C108 206.65 108 208.3 108 210 C96.12 210 84.24 210 72 210 C69.69 205.38 67.38 200.76 65 196 C63.44817095 193.03494225 61.88934607 190.07646231 60.3125 187.125 C55.89076935 178.79041594 51.66415423 170.36611294 47.46875 161.91577148 C44.3368627 155.62432115 41.12031877 149.38803871 37.8125 143.1875 C34.05679154 136.14292811 30.55196731 129.00856241 27.21801758 121.75463867 C24.88772416 116.72127215 22.32128845 111.8630929 19.64160156 107.00732422 C16.58505465 101.40789756 13.67822025 95.72974905 10.75 90.0625 C10.11989471 88.84564976 9.48968683 87.62885264 8.859375 86.41210938 C3.9379111 76.90328958 3.9379111 76.90328958 2 73 C1.67837891 73.61818604 1.35675781 74.23637207 1.02539062 74.87329102 C-9.73137416 95.54093377 -9.73137416 95.54093377 -14.4375 104.3125 C-17.39263959 109.82747745 -20.23480686 115.38756052 -23 121 C-29.97790433 135.11999465 -37.27092803 149.06878923 -44.58203125 163.01855469 C-50.83645469 174.95705402 -57.03145158 186.91573347 -63 199 C-63.495 199.99 -63.495 199.99 -64 201 C-64.66 201 -65.32 201 -66 201 C-66.76646436 196.90683494 -67.13389042 193.02418016 -67.16113281 188.86206055 C-67.17074036 187.67029709 -67.1803479 186.47853363 -67.19024658 185.25065613 C-67.19449646 183.97555679 -67.19874634 182.70045746 -67.203125 181.38671875 C-67.20595238 180.73046824 -67.20877975 180.07421772 -67.21169281 179.39808083 C-67.22663016 175.92529531 -67.23589411 172.45255076 -67.24023438 168.97973633 C-67.24571199 165.41583863 -67.26974028 161.85232431 -67.29820633 158.28854656 C-67.31694251 155.52680912 -67.32204409 152.76516206 -67.32357025 150.00336647 C-67.32802009 148.0575936 -67.3466093 146.11186934 -67.36553955 144.16618347 C-67.34287403 135.09408042 -65.8901411 128.07653177 -61.58203125 120.08984375 C-61.13657959 119.25380615 -60.69112793 118.41776855 -60.23217773 117.55639648 C-59.76368408 116.69216064 -59.29519043 115.8279248 -58.8125 114.9375 C-57.81915714 113.07353192 -56.82697835 111.20894304 -55.8359375 109.34375 C-55.35092773 108.43367188 -54.86591797 107.52359375 -54.36621094 106.5859375 C-52.50437984 103.0618998 -50.70920262 99.50751978 -48.9375 95.9375 C-48.62321045 95.30553711 -48.3089209 94.67357422 -47.98510742 94.02246094 C-46.98854411 92.01572764 -45.99414236 90.00793366 -45 88 C-37.84935802 73.57129687 -30.55387534 59.23034092 -22.875 45.07421875 C-19.03741101 37.98566086 -15.46702714 30.83199932 -12.08740234 23.51342773 C-8.36476378 15.51443796 -4.19503217 7.75886737 0 0 Z " fill="#8643F3" transform="translate(137,14)"/>
<path d="M0 0 C0.66 0 1.32 0 2 0 C4.68704918 4.65522546 7.35157456 9.3226977 10 14 C10.35175293 14.61858887 10.70350586 15.23717773 11.06591797 15.87451172 C12.05346551 17.61932031 13.02701236 19.37203045 14 21.125 C14.5775 22.15882813 15.155 23.19265625 15.75 24.2578125 C17 27 17 27 17 31 C17.66 31 18.32 31 19 31 C19.69222656 32.38445312 19.69222656 32.38445312 20.3984375 33.796875 C20.7085376 34.41675293 21.0186377 35.03663086 21.33813477 35.67529297 C22.03757858 37.07483937 22.73595982 38.47491724 23.43334961 39.87548828 C25.52844733 44.07850058 27.64669316 48.26817634 29.79296875 52.4453125 C30.48350342 53.79931152 30.48350342 53.79931152 31.18798828 55.18066406 C32.09801016 56.96450092 33.01427478 58.74516797 33.93701172 60.52246094 C34.35096191 61.3374707 34.76491211 62.15248047 35.19140625 62.9921875 C35.56467041 63.71776855 35.93793457 64.44334961 36.32250977 65.19091797 C36.54608154 65.78791504 36.76965332 66.38491211 37 67 C36.67 67.66 36.34 68.32 36 69 C24.78 69.33 13.56 69.66 2 70 C0.86820312 72.20300781 -0.26359375 74.40601563 -1.4296875 76.67578125 C-2.52805192 78.81068779 -3.62703298 80.94527581 -4.72607422 83.07983398 C-5.48908985 84.56257473 -6.25146478 86.04564537 -7.01318359 87.52905273 C-8.10866393 89.66216861 -9.20644886 91.79408445 -10.3046875 93.92578125 C-10.6443454 94.58838455 -10.9840033 95.25098785 -11.33395386 95.93367004 C-12.77758543 98.73100421 -14.25144272 101.37716408 -16 104 C-15.34585302 103.99078207 -14.69170605 103.98156414 -14.01773643 103.97206688 C1.90680587 103.75112274 17.83081445 103.58569791 33.75650978 103.48187828 C41.45818787 103.4303354 49.15884232 103.36008285 56.85986328 103.24560547 C63.57299939 103.14586088 70.28539425 103.08140229 76.99925077 103.05911505 C80.55394798 103.04608757 84.1065249 103.01553442 87.66054153 102.94269943 C91.63037765 102.8620044 95.59814927 102.860105 99.56884766 102.86474609 C100.74417053 102.82879333 101.91949341 102.79284058 103.13043213 102.75579834 C106.38190705 102.79698375 108.92867474 102.92588879 112 104 C114.82569645 107.01142168 116.38942792 110.22940701 118 114 C118.74571038 115.43855716 119.49911713 116.87319715 120.265625 118.30078125 C120.93127019 119.63594166 121.59281427 120.97315548 122.25 122.3125 C122.75660156 123.32666992 122.75660156 123.32666992 123.2734375 124.36132812 C125.00580906 127.85676287 126.61555908 131.3481839 128 135 C125.44459557 137.55540443 118.6015584 137.01139186 115.14481449 137.11022377 C113.78297301 137.10840665 112.42113083 137.10106751 111.05934143 137.08901978 C109.92308623 137.08523443 109.92308623 137.08523443 108.76387638 137.08137262 C106.24821541 137.07171941 103.73266168 137.05467676 101.21704102 137.03759766 C99.40470067 137.02908296 97.59235819 137.02101252 95.78001404 137.01335144 C90.87558423 136.99123267 85.97121325 136.96255132 81.06682706 136.93239641 C75.9343741 136.90167478 70.80189504 136.87609213 65.66941833 136.84970093 C57.05896652 136.80457761 48.44854778 136.7550968 39.83813477 136.703125 C29.871233 136.64302882 19.90431219 136.59029142 9.93734986 136.54135668 C0.35315889 136.49409709 -9.2309938 136.44126163 -18.81514168 136.38599777 C-22.89766763 136.36258123 -26.98019682 136.34121612 -31.06274223 136.32149124 C-35.86032042 136.29808925 -40.65784581 136.26985459 -45.45537376 136.23780251 C-47.22070078 136.22680914 -48.98603938 136.21752896 -50.75138474 136.21003914 C-53.15038758 136.19958751 -55.54927172 136.18308159 -57.94822693 136.16494751 C-58.65579162 136.16328728 -59.3633563 136.16162706 -60.09236234 136.15991652 C-64.8858479 136.1141521 -64.8858479 136.1141521 -66 135 C-66.06579741 128.34056034 -64.01617816 122.97630929 -61.0625 117.125 C-60.66426025 116.3112793 -60.26602051 115.49755859 -59.85571289 114.65917969 C-54.75993822 104.33073781 -49.31903811 94.18057591 -43.87109375 84.03515625 C-43.20548425 82.79440219 -42.54011413 81.55351968 -41.875 80.3125 C-41.39148071 79.41096191 -41.39148071 79.41096191 -40.89819336 78.49121094 C-38.16652014 73.37078692 -35.57703026 68.18452894 -33.00170898 62.98413086 C-30.40969452 57.76902566 -27.69116619 52.63083762 -24.9296875 47.50390625 C-22.1021923 42.23700343 -19.43918002 36.89547494 -16.78515625 31.5390625 C-14.57163634 27.15077139 -12.25552264 22.82280176 -9.92553711 18.49560547 C-7.21553113 13.44764631 -4.64733782 8.34197102 -2.12890625 3.1953125 C-1 1 -1 1 0 0 Z " fill="#BB5BF4" transform="translate(138,125)"/>
<path d="M0 0 C40.26 0 80.52 0 122 0 C136 27 136 27 137 30 C133.99557746 33.00442254 125.9252439 32.07358734 121.93302917 32.0957489 C119.53760251 32.08705008 117.14219241 32.07257696 114.74682617 32.0534668 C113.43374481 32.04707184 112.12066345 32.04067688 110.76779175 32.03408813 C107.18755586 32.01627473 103.60739763 31.99170744 100.02721572 31.96532798 C97.03477341 31.94375206 94.04231527 31.92513875 91.0498541 31.90639621 C83.9942139 31.86200618 76.93863182 31.81172731 69.88305664 31.75805664 C62.60415845 31.70281805 55.32525105 31.65887821 48.04624766 31.62020558 C41.78955948 31.58649451 35.53295189 31.54518192 29.27635175 31.49788028 C25.54228221 31.46976674 21.80825343 31.44470492 18.07411766 31.4272213 C13.91801191 31.40743337 9.76218817 31.37184359 5.60620117 31.3347168 C4.36720566 31.33098557 3.12821014 31.32725433 1.85166931 31.32341003 C0.7231958 31.31080139 -0.40527771 31.29819275 -1.56794739 31.28520203 C-2.55032788 31.27837245 -3.53270838 31.27154287 -4.54485798 31.26450634 C-7 31 -7 31 -10 29 C-6.37 29 -2.74 29 1 29 C0.67 19.43 0.34 9.86 0 0 Z " fill="#06A1CE" transform="translate(129,230)"/>
<path d="M0 0 C0.66 0 1.32 0 2 0 C4.68704918 4.65522546 7.35157456 9.3226977 10 14 C10.52762939 14.9278833 10.52762939 14.9278833 11.06591797 15.87451172 C12.05346551 17.61932031 13.02701236 19.37203045 14 21.125 C14.5775 22.15882813 15.155 23.19265625 15.75 24.2578125 C17 27 17 27 17 31 C17.66 31 18.32 31 19 31 C19.46148437 31.92296875 19.92296875 32.8459375 20.3984375 33.796875 C20.8634668 34.72681274 20.8634668 34.72681274 21.33789062 35.67553711 C22.03736905 37.07465862 22.7365819 38.47391293 23.43554688 39.87329102 C25.53672187 44.07884961 27.6438385 48.28132752 29.7578125 52.48046875 C30.21365723 53.38764648 30.66950195 54.29482422 31.13916016 55.22949219 C32.04089786 57.02390815 32.9441995 58.81753912 33.84912109 60.61035156 C34.25984863 61.42858398 34.67057617 62.24681641 35.09375 63.08984375 C35.46177734 63.82066162 35.82980469 64.55147949 36.20898438 65.30444336 C37 67 37 67 37 68 C31.90968245 68.04936158 26.81950357 68.08570105 21.72900391 68.10986328 C19.99655735 68.11993376 18.26412784 68.13359089 16.53173828 68.15087891 C14.04455361 68.17508162 11.55759325 68.18647239 9.0703125 68.1953125 C8.29317902 68.20563507 7.51604553 68.21595764 6.71536255 68.22659302 C4.80874507 68.22699271 2.90268964 68.1223214 1 68 C0.34 67.34 -0.32 66.68 -1 66 C-0.34 64.68 0.32 63.36 1 62 C2.98 62.33 4.96 62.66 7 63 C7.33 62.01 7.66 61.02 8 60 C8.33 60.99 8.66 61.98 9 63 C8.505 63.99 8.505 63.99 8 65 C9.35931641 64.98259766 9.35931641 64.98259766 10.74609375 64.96484375 C17.59503464 64.91411085 24.213908 65.06398731 31 66 C30.01 63.69 29.02 61.38 28 59 C27.34 59 26.68 59 26 59 C23.87505743 55.54696833 24 52.9844037 24 49 C23.08742694 46.21433941 23.08742694 46.21433941 22 44 C21.01 44 20.02 44 19 44 C18.67 44.66 18.34 45.32 18 46 C16.9375 44.125 16.9375 44.125 16 42 C16.33 41.34 16.66 40.68 17 40 C15.515 39.505 15.515 39.505 14 39 C13.34 40.32 12.68 41.64 12 43 C9.08081862 37.35624932 9.08792481 34.18184294 10 28 C9.01 28 8.02 28 7 28 C6.95101562 27.18015625 6.90203125 26.3603125 6.8515625 25.515625 C6.73941406 23.89914063 6.73941406 23.89914063 6.625 22.25 C6.55539063 21.18265625 6.48578125 20.1153125 6.4140625 19.015625 C6.12548997 15.71533287 6.12548997 15.71533287 4 12 C-0.455 13.485 -0.455 13.485 -5 15 C-4.618619 8.70721347 -4.10955994 4.85675265 0 0 Z " fill="#4417EC" transform="translate(138,125)"/>
<path d="M0 0 C0.99 0.33 1.98 0.66 3 1 C2.938125 1.721875 2.87625 2.44375 2.8125 3.1875 C3.03523932 6.52858974 4.1282246 8.27032755 6 11 C6.33 9.68 6.66 8.36 7 7 C7.99 7.33 8.98 7.66 10 8 C9.62875 9.051875 9.2575 10.10375 8.875 11.1875 C7.93385393 15.28820788 8.06048406 16.41189551 10 20 C10.37125 20.763125 10.7425 21.52625 11.125 22.3125 C11.41375 22.869375 11.7025 23.42625 12 24 C13.65 24 15.3 24 17 24 C17.33 23.34 17.66 22.68 18 22 C17.47731534 24.76276177 16.89130413 27.3260876 16 30 C16.95012124 32.02417134 17.94991347 34.02583732 19 36 C19 36.66 19 37.32 19 38 C19.66 38.33 20.32 38.66 21 39 C21.66 39.99 22.32 40.98 23 42 C23.99 41.505 23.99 41.505 25 41 C25.19916016 42.12148437 25.19916016 42.12148437 25.40234375 43.265625 C25.57894531 44.25046875 25.75554687 45.2353125 25.9375 46.25 C26.11152344 47.22453125 26.28554687 48.1990625 26.46484375 49.203125 C26.90135133 51.48443468 27.43666368 53.74665473 28 56 C36.25 56.33 44.5 56.66 53 57 C52.34 55.68 51.68 54.36 51 53 C51.2784375 51.4221875 51.2784375 51.4221875 51.5625 49.8125 C52.10463256 45.08820196 51.27208044 41.20154557 49 37 C48.01 36.67 47.02 36.34 46 36 C46.66 35.01 47.32 34.02 48 33 C51 34 51 34 52.05908203 35.6105957 C52.37216309 36.29210693 52.68524414 36.97361816 53.0078125 37.67578125 C53.52794922 38.79436523 53.52794922 38.79436523 54.05859375 39.93554688 C54.41050781 40.71994141 54.76242188 41.50433594 55.125 42.3125 C55.48464844 43.08529297 55.84429687 43.85808594 56.21484375 44.65429688 C57.78994064 48.08470452 59.17206602 51.30530587 60 55 C60.66 55 61.32 55 62 55 C62 56.65 62 58.3 62 60 C50.12 60 38.24 60 26 60 C23.69 55.38 21.38 50.76 19 46 C17.42739482 42.99325802 15.84711256 39.9934276 14.25 37 C12.49351782 33.670053 10.74575376 30.33558206 9 27 C8.49227051 26.0320752 7.98454102 25.06415039 7.46142578 24.06689453 C5.89824801 21.07221054 4.35332099 18.06873798 2.8125 15.0625 C2.3184668 14.12083984 1.82443359 13.17917969 1.31542969 12.20898438 C0.64302246 10.88543945 0.64302246 10.88543945 -0.04296875 9.53515625 C-0.44539795 8.755354 -0.84782715 7.97555176 -1.26245117 7.17211914 C-2.12028639 4.64575041 -1.94773682 3.46208849 -1 1 C-0.67 0.67 -0.34 0.34 0 0 Z " fill="#3231D6" transform="translate(183,164)"/>
<path d="M0 0 C4.51666764 -0.02312287 9.03312473 -0.04298528 13.54980469 -0.05493164 C15.08203838 -0.05991896 16.61426742 -0.06671122 18.14648438 -0.07543945 C26.49179593 -0.12174177 34.70373415 -0.04734171 43 1 C43 1.33 43 1.66 43 2 C40.10450497 2.1954384 37.20891002 2.38161395 34.3125 2.5625 C33.49587891 2.61857422 32.67925781 2.67464844 31.83789062 2.73242188 C27.70485877 2.98341571 24.04175718 3.11127743 20 2 C19.67 2.66 19.34 3.32 19 4 C18.46375 3.814375 17.9275 3.62875 17.375 3.4375 C14.38009386 2.88580676 11.96254171 3.39402556 9 4 C9.01160156 4.55945313 9.02320313 5.11890625 9.03515625 5.6953125 C9.11923413 13.16623304 8.60066109 20.55609286 8 28 C8.68964844 27.91621094 9.37929687 27.83242188 10.08984375 27.74609375 C16.28433085 27.07481188 21.8502722 26.90891926 28 28 C28.33 28.66 28.66 29.32 29 30 C19.1 30 9.2 30 -1 30 C-0.34 29.67 0.32 29.34 1 29 C0.67 19.43 0.34 9.86 0 0 Z " fill="#4619EA" transform="translate(129,230)"/>
<path d="M0 0 C16.17 0 32.34 0 49 0 C51.289375 4.393125 53.57875 8.78625 55.9375 13.3125 C56.65929443 14.69477783 57.38108887 16.07705566 58.12475586 17.5012207 C58.69073486 18.59007568 59.25671387 19.67893066 59.83984375 20.80078125 C60.42113037 21.91622314 61.00241699 23.03166504 61.60131836 24.1809082 C63 27 63 27 64 30 C61.90274363 32.09725637 57.89476485 31.88184633 55 32 C54.38735291 31.84100723 53.77470581 31.68201447 53.14349365 31.51820374 C50.89794388 30.97532726 48.90613767 30.84218519 46.59863281 30.79467773 C45.7380426 30.77473251 44.87745239 30.75478729 43.99078369 30.73423767 C42.61089264 30.70916893 42.61089264 30.70916893 41.203125 30.68359375 C40.25435486 30.66281265 39.30558472 30.64203156 38.32806396 30.62062073 C35.30211518 30.55532066 32.2760808 30.49633112 29.25 30.4375 C27.19660579 30.3942962 25.14322018 30.35068131 23.08984375 30.30664062 C18.0599832 30.19965927 13.03003668 30.09833677 8 30 C12.10461637 27.70292796 15.7379225 27.75997028 20.34375 27.83984375 C21.14985718 27.84504532 21.95596436 27.85024689 22.78649902 27.85560608 C25.35785106 27.8733875 27.92880112 27.90454825 30.5 27.9375 C33.07115965 27.96515981 35.64226093 27.9898749 38.21350098 28.00868225 C39.81177905 28.02089237 41.41002745 28.03844971 43.00817871 28.06199646 C47.07326241 28.12395864 47.07326241 28.12395864 51.06481934 27.46754456 C53.59916554 26.85524009 55.50013064 27.37503266 58 28 C57.39009109 24.44219804 56.4216319 21.3171411 55 18 C54.34 18 53.68 18 53 18 C52.505 16.515 52.505 16.515 52 15 C51.34 15.33 50.68 15.66 50 16 C48.19682779 12.03302114 47.50797009 8.3177458 47 4 C42.84315297 2.93340687 42.84315297 2.93340687 38.875 4.0625 C38.25625 4.371875 37.6375 4.68125 37 5 C36.4117041 4.69408936 35.8234082 4.38817871 35.21728516 4.07299805 C32.52391949 2.7696131 30.63121126 2.75635143 27.6484375 2.76953125 C26.63265625 2.77146484 25.616875 2.77339844 24.5703125 2.77539062 C23.51585937 2.78763672 22.46140625 2.79988281 21.375 2.8125 C20.3128125 2.81314453 19.250625 2.81378906 18.15625 2.81445312 C12.91082811 2.61160649 12.91082811 2.61160649 8 4 C7.67 3.34 7.34 2.68 7 2 C4.67843403 1.59270772 2.3431213 1.25561323 0 1 C0 0.67 0 0.34 0 0 Z " fill="#18DE9F" transform="translate(202,230)"/>
<path d="M0 0 C1.32 0 2.64 0 4 0 C2.81161801 4.06030515 1.20196463 7.48348358 -0.92089844 11.13305664 C-2.59658157 14.0321401 -4.17510392 16.98291974 -5.75 19.9375 C-6.09361572 20.58154785 -6.43723145 21.2255957 -6.79125977 21.88916016 C-9.59498256 27.17479379 -12.27610954 32.51620865 -14.92871094 37.87890625 C-17.3634395 42.78148894 -19.91144423 47.61468181 -22.5 52.4375 C-25.94533706 58.86682427 -29.11423784 65.38874807 -32.17382812 72.00927734 C-34.86987523 77.81288788 -37.82967758 83.43992697 -41 89 C-41.66 89 -42.32 89 -43 89 C-43.625 87.125 -43.625 87.125 -44 85 C-43.01 84.01 -43.01 84.01 -42 83 C-39.99207152 79.98810728 -39.11601284 77.41778932 -38 74 C-37.0625 71.6875 -37.0625 71.6875 -36 70 C-34.515 69.505 -34.515 69.505 -33 69 C-32.67 66.03 -32.34 63.06 -32 60 C-31.34 60 -30.68 60 -30 60 C-28.91145144 57.96804269 -28.04274287 56.20150212 -27.5625 53.9375 C-27 52 -27 52 -25.50390625 50.66015625 C-23.60029207 48.55876398 -23.55210789 47.29644033 -23.375 44.5 C-23.17885852 41.69797885 -22.90041818 39.70125455 -22 37 C-20.824375 36.6596875 -20.824375 36.6596875 -19.625 36.3125 C-16.51285781 34.75642891 -16.34713604 34.03209524 -15.1875 30.875 C-14.77335394 29.58908793 -14.37153556 28.29886417 -14 27 C-13.34 27 -12.68 27 -12 27 C-12.66 25.02 -13.32 23.04 -14 21 C-12.7934375 20.443125 -12.7934375 20.443125 -11.5625 19.875 C-8.68827104 18.1890663 -8.68827104 18.1890663 -8.1875 14.8125 C-8.125625 13.884375 -8.06375 12.95625 -8 12 C-7.01 12 -6.02 12 -5 12 C-5 11.01 -5 10.02 -5 9 C-4.34 9 -3.68 9 -3 9 C-2.67 7.35 -2.34 5.7 -2 4 C-1.34 4 -0.68 4 0 4 C0 2.68 0 1.36 0 0 Z " fill="#E475F0" transform="translate(114,126)"/>
<path d="M0 0 C0.495 1.98 0.495 1.98 1 4 C0.34 4 -0.32 4 -1 4 C-0.97679687 4.67546875 -0.95359375 5.3509375 -0.9296875 6.046875 C-0.91164062 6.93890625 -0.89359375 7.8309375 -0.875 8.75 C-0.85179687 9.63171875 -0.82859375 10.5134375 -0.8046875 11.421875 C-1.00860498 14.1135858 -1.63448279 15.69904974 -3 18 C-2.34 18.33 -1.68 18.66 -1 19 C-1.625 21.375 -1.625 21.375 -3 24 C-3.969375 24.268125 -4.93875 24.53625 -5.9375 24.8125 C-6.948125 25.204375 -7.95875 25.59625 -9 26 C-10.45995124 29.28997788 -10.45995124 29.28997788 -11.14453125 31.7109375 C-12.43440075 35.16236912 -14.59181485 37.89470249 -16.79296875 40.82421875 C-18.23231843 43.41877465 -18.02861504 45.08126602 -18 48 C-19.62449243 49.70779973 -21.29220027 51.37550757 -23 53 C-23.70514846 55.14733927 -23.70514846 55.14733927 -24 57 C-24.99 57.495 -24.99 57.495 -26 58 C-27.04349839 59.63978318 -28.03182008 61.31464976 -29 63 C-29.84896183 64.37821968 -30.70344956 65.75304591 -31.5625 67.125 C-31.97628906 67.78757812 -32.39007813 68.45015625 -32.81640625 69.1328125 C-33.85432931 70.77019608 -34.92463827 72.38695741 -36 74 C-35.46006213 69.82847721 -34.54837143 66.64487027 -32.55859375 62.9453125 C-32.06149902 62.00921143 -31.5644043 61.07311035 -31.05224609 60.10864258 C-30.25294678 58.6317395 -30.25294678 58.6317395 -29.4375 57.125 C-28.33360724 55.04872341 -27.23074491 52.97189864 -26.12890625 50.89453125 C-25.59023926 49.88342285 -25.05157227 48.87231445 -24.49658203 47.83056641 C-22.56856839 44.18401009 -20.70670922 40.50816346 -18.875 36.8125 C-18.56836426 36.19576416 -18.26172852 35.57902832 -17.94580078 34.94360352 C-16.96233385 32.96315908 -15.98115397 30.98159126 -15 29 C-13.27403896 25.51923177 -11.54398034 22.04052539 -9.8125 18.5625 C-9.40821777 17.74563721 -9.00393555 16.92877441 -8.58740234 16.0871582 C-5.87383259 10.63724826 -3.00007642 5.29746793 0 0 Z " fill="#F4B5F5" transform="translate(107,73)"/>
<path d="M0 0 C0.33 0.66 0.66 1.32 1 2 C2.299375 1.979375 3.59875 1.95875 4.9375 1.9375 C6.29165633 1.91600546 7.64756083 1.92851801 9 2 C10 3 10 3 10.11352539 5.68383789 C10.10828857 6.85164795 10.10305176 8.01945801 10.09765625 9.22265625 C10.09443359 10.48271484 10.09121094 11.74277344 10.08789062 13.04101562 C10.07953403 14.38151109 10.07106907 15.72200588 10.0625 17.0625 C10.0574866 18.40689942 10.05292342 19.7513006 10.04882812 21.09570312 C10.03699488 24.39717941 10.02050971 27.69856803 10 31 C3.48214286 32.27678571 3.48214286 32.27678571 0 30 C0.66 30 1.32 30 2 30 C1.86076952 25.93724554 1.71246082 21.87487143 1.5625 17.8125 C1.52318359 16.66201172 1.48386719 15.51152344 1.44335938 14.32617188 C1.40146484 13.21435547 1.35957031 12.10253906 1.31640625 10.95703125 C1.27974854 9.93585205 1.24309082 8.91467285 1.20532227 7.86254883 C1.01159937 5.16171537 0.59548047 2.63833872 0 0 Z " fill="#8C29F1" transform="translate(120,228)"/>
<path d="M0 0 C0.33 0 0.66 0 1 0 C1.25 7.625 1.25 7.625 -1 11 C-1 12.051875 -1 13.10375 -1 14.1875 C-1 18.5212735 -1.83341051 21.84402493 -3 26 C-3.99 26 -4.98 26 -6 26 C-6.99 26.33 -7.98 26.66 -9 27 C-9.04125 27.680625 -9.0825 28.36125 -9.125 29.0625 C-10.20751463 32.69665626 -12.06973507 34.53903836 -14.57421875 37.3125 C-17.84292978 41.181221 -18.68445263 46.20764885 -20 51 C-20.66 50.34 -21.32 49.68 -22 49 C-22.99 49.66 -23.98 50.32 -25 51 C-24.36124266 48.06204526 -23.41592821 45.58554748 -22.06640625 42.90234375 C-21.66953613 42.10989258 -21.27266602 41.31744141 -20.86376953 40.50097656 C-20.43435059 39.6550293 -20.00493164 38.80908203 -19.5625 37.9375 C-19.12019043 37.05932617 -18.67788086 36.18115234 -18.22216797 35.27636719 C-14.69049918 28.29286952 -11.07176989 21.3561724 -7.40063477 14.44506836 C-4.86140515 9.66388222 -2.4035308 4.8509617 0 0 Z " fill="#EB8BF0" transform="translate(107,184)"/>
<path d="M0 0 C0.99 0 1.98 0 3 0 C3.38220703 0.76965088 3.76441406 1.53930176 4.15820312 2.33227539 C5.61307211 5.25930196 7.06968966 8.18544347 8.52770996 11.11090088 C9.17480017 12.40975269 9.82136782 13.70886496 10.46740723 15.00823975 C14.09131617 22.2937924 17.77802208 29.52141886 21.75 36.625 C24.67147371 41.98727761 26.42672076 46.90890813 27 53 C25.68 53.66 24.36 54.32 23 55 C23.04125 53.948125 23.0825 52.89625 23.125 51.8125 C23.00731506 48.22310921 22.80792162 46.07346675 21 43 C18.97536745 42.34786708 18.97536745 42.34786708 17 42 C16 39 16 39 16 35 C15.34 34.01 14.68 33.02 14 32 C13.61500109 30.34450469 13.27206865 28.6777567 13 27 C11.35 27 9.7 27 8 27 C8.33 25.35 8.66 23.7 9 22 C8.34 21.67 7.68 21.34 7 21 C7.33 19.02 7.66 17.04 8 15 C7.01 15.33 6.02 15.66 5 16 C4.67 14.02 4.34 12.04 4 10 C2.35 10 0.7 10 -1 10 C-0.67 6.7 -0.34 3.4 0 0 Z " fill="#3A37D5" transform="translate(203,143)"/>
<path d="M0 0 C0.66 0 1.32 0 2 0 C4.68704918 4.65522546 7.35157456 9.3226977 10 14 C10.52762939 14.9278833 10.52762939 14.9278833 11.06591797 15.87451172 C12.05346551 17.61932031 13.02701236 19.37203045 14 21.125 C14.5775 22.15882813 15.155 23.19265625 15.75 24.2578125 C17 27 17 27 17 31 C17.66 31 18.32 31 19 31 C18.67 31.66 18.34 32.32 18 33 C17.34 33 16.68 33 16 33 C16 31.35 16 29.7 16 28 C15.071875 28.185625 14.14375 28.37125 13.1875 28.5625 C10 29 10 29 7 28 C6.95101562 27.18015625 6.90203125 26.3603125 6.8515625 25.515625 C6.73941406 23.89914063 6.73941406 23.89914063 6.625 22.25 C6.55539063 21.18265625 6.48578125 20.1153125 6.4140625 19.015625 C6.12548997 15.71533287 6.12548997 15.71533287 4 12 C-0.455 13.485 -0.455 13.485 -5 15 C-4.618619 8.70721347 -4.10955994 4.85675265 0 0 Z " fill="#6930E2" transform="translate(138,125)"/>
<path d="M0 0 C2 3 2 3 1.5390625 5.41015625 C1.23742187 6.28542969 0.93578125 7.16070312 0.625 8.0625 C-1.10897127 12.61401069 -1.10897127 12.61401069 0 17.125 C0.33 17.74375 0.66 18.3625 1 19 C0.34 19.33 -0.32 19.66 -1 20 C-1 19.34 -1 18.68 -1 18 C-2.65 18.33 -4.3 18.66 -6 19 C-5.896875 19.845625 -5.79375 20.69125 -5.6875 21.5625 C-6.05787937 25.6366731 -7.30415738 27.28293009 -9.80859375 30.38671875 C-11.20739801 32.10686487 -11.20739801 32.10686487 -12 35 C-12.66 35.66 -13.32 36.32 -14 37 C-14.144375 37.639375 -14.28875 38.27875 -14.4375 38.9375 C-15 41 -15 41 -16.375 42.3125 C-18.77038004 44.80001004 -19.65783714 47.84883502 -21 51 C-21.99 51.495 -21.99 51.495 -23 52 C-22.505 49.03 -22.505 49.03 -22 46 C-21.34 46 -20.68 46 -20 46 C-20.103125 45.22398438 -20.20625 44.44796875 -20.3125 43.6484375 C-19.8557595 38.31599212 -17.47034756 34.31373421 -15 29.625 C-13.99209374 27.66411069 -12.98428204 25.70317277 -11.9765625 23.7421875 C-11.47415039 22.77506836 -10.97173828 21.80794922 -10.45410156 20.81152344 C-8.38550304 16.81186249 -6.37854886 12.78251868 -4.375 8.75 C-3.73735282 7.47377158 -3.09936755 6.19771198 -2.4609375 4.921875 C-1.97882813 3.95765625 -1.49671875 2.9934375 -1 2 C-0.67 1.34 -0.34 0.68 0 0 Z " fill="#BA3CF0" transform="translate(128,31)"/>
<path d="M0 0 C2.47524858 0.36137852 3.66135009 0.54559137 5.18847656 2.59472656 C5.50268555 3.26987305 5.81689453 3.94501953 6.140625 4.640625 C6.48867187 5.38183594 6.83671875 6.12304688 7.1953125 6.88671875 C7.54335937 7.66660156 7.89140625 8.44648438 8.25 9.25 C8.61351562 10.01441406 8.97703125 10.77882812 9.3515625 11.56640625 C11.1494767 15.47991123 12.52862494 18.59479213 12 23 C12.66 23 13.32 23 14 23 C14 23.99 14 24.98 14 26 C2.78 26 -8.44 26 -20 26 C-19.505 24.515 -19.505 24.515 -19 23 C-10.75 23.33 -2.5 23.66 6 24 C5.34 22.68 4.68 21.36 4 20 C4.185625 18.948125 4.37125 17.89625 4.5625 16.8125 C5.10463256 12.08820196 4.27208044 8.20154557 2 4 C1.01 3.67 0.02 3.34 -1 3 C-0.67 2.01 -0.34 1.02 0 0 Z " fill="#0709CC" transform="translate(230,197)"/>
<path d="M0 0 C1.32 0 2.64 0 4 0 C2.67534413 2.66676586 1.32107611 5.31462561 -0.06640625 7.94921875 C-0.46512939 8.70734863 -0.86385254 9.46547852 -1.2746582 10.24658203 C-2.14751204 11.90095032 -3.02241439 13.55423912 -3.89916992 15.20654297 C-6.14572986 19.44598661 -8.35809287 23.69489463 -10.484375 27.99609375 C-10.87681396 28.77573486 -11.26925293 29.55537598 -11.67358398 30.35864258 C-12.41915405 31.84227107 -13.15104167 33.33287409 -13.86743164 34.83081055 C-16.38626466 39.78645135 -16.38626466 39.78645135 -19.76171875 40.9609375 C-20.50035156 40.97382812 -21.23898438 40.98671875 -22 41 C-22 39.68 -22 38.36 -22 37 C-21.484375 36.505 -20.96875 36.01 -20.4375 35.5 C-19.963125 35.005 -19.48875 34.51 -19 34 C-19.22757731 31.83700789 -19.22757731 31.83700789 -20 30 C-19.21625 29.79375 -18.4325 29.5875 -17.625 29.375 C-14.77343767 28.24736857 -14.77343767 28.24736857 -14 25.4375 C-13.67 24.303125 -13.34 23.16875 -13 22 C-11.44983703 18.93208165 -9.72614197 15.97158618 -8 13 C-7.443125 11.989375 -6.88625 10.97875 -6.3125 9.9375 C-5.879375 9.298125 -5.44625 8.65875 -5 8 C-4.34 8 -3.68 8 -3 8 C-3 7.34 -3 6.68 -3 6 C-2.34 6 -1.68 6 -1 6 C-1.020625 5.195625 -1.04125 4.39125 -1.0625 3.5625 C-1 1 -1 1 0 0 Z " fill="#C05AE4" transform="translate(136,85)"/>
<path d="M0 0 C4.51659796 -0.02496844 9.03315791 -0.04298537 13.54980469 -0.05493164 C15.08203838 -0.05991896 16.61426742 -0.06671122 18.14648438 -0.07543945 C26.49179593 -0.12174177 34.70373415 -0.04734171 43 1 C43 1.33 43 1.66 43 2 C40.10450497 2.1954384 37.20891002 2.38161395 34.3125 2.5625 C33.49587891 2.61857422 32.67925781 2.67464844 31.83789062 2.73242188 C27.70485877 2.98341571 24.04175718 3.11127743 20 2 C19.67 2.66 19.34 3.32 19 4 C18.46375 3.814375 17.9275 3.62875 17.375 3.4375 C14.38009386 2.88580676 11.96254171 3.39402556 9 4 C9.01160156 4.55945313 9.02320313 5.11890625 9.03515625 5.6953125 C9.11923413 13.16623304 8.60066109 20.55609286 8 28 C8.68964844 27.91621094 9.37929687 27.83242188 10.08984375 27.74609375 C16.28433085 27.07481188 21.8502722 26.90891926 28 28 C28.33 28.66 28.66 29.32 29 30 C21.74 30 14.48 30 7 30 C6.67 20.76 6.34 11.52 6 2 C3.03 1.505 3.03 1.505 0 1 C0 0.67 0 0.34 0 0 Z " fill="#0E30D7" transform="translate(129,230)"/>
<path d="M0 0 C0.33 1.32 0.66 2.64 1 4 C0.34 4 -0.32 4 -1 4 C-0.67257813 4.88816406 -0.34515625 5.77632812 -0.0078125 6.69140625 C1.60329915 12.33029701 1.21090552 18.12566113 1.125 23.9375 C1.11597656 25.09830078 1.10695313 26.25910156 1.09765625 27.45507812 C1.07421162 30.30360108 1.04139522 33.15169078 1 36 C-0.98 36.495 -0.98 36.495 -3 37 C-5.32179139 32.35641722 -3.14315664 24.89924276 -2 20 C-2.66 20 -3.32 20 -4 20 C-3.98839844 19.30132812 -3.97679688 18.60265625 -3.96484375 17.8828125 C-3.95582031 16.97273438 -3.94679688 16.06265625 -3.9375 15.125 C-3.92589844 14.22007812 -3.91429688 13.31515625 -3.90234375 12.3828125 C-3.83750743 9.9831415 -3.83750743 9.9831415 -5 8 C-5.66 7.67 -6.32 7.34 -7 7 C-6.34 5.35 -5.68 3.7 -5 2 C-4.67 2.66 -4.34 3.32 -4 4 C-2.68 3.67 -1.36 3.34 0 3 C0 2.01 0 1.02 0 0 Z " fill="#C83DF7" transform="translate(121,222)"/>
<path d="M0 0 C2 2 2 2 2.875 3.9375 C3.87940466 6.14394971 3.87940466 6.14394971 6.0625 7.4375 C8.62281254 9.50226817 8.42984349 10.79286963 9 14 C10.77849697 18.32158141 12.04525536 21.36350357 16 24 C16.40197001 26.32249342 16.72686657 28.65885633 17 31 C18.20663086 35.87867369 18.20663086 35.87867369 22 39 C21.34 39 20.68 39 20 39 C19.67 39.66 19.34 40.32 19 41 C19 40.34 19 39.68 19 39 C17.515 38.505 17.515 38.505 16 38 C14.63813245 35.68089961 13.4569046 33.42419636 12.3125 31 C11.80009766 29.93978638 11.80009766 29.93978638 11.27734375 28.8581543 C10.5523289 27.35338465 9.83192191 25.84638771 9.11572266 24.33740234 C7.9963167 21.9922836 6.85056424 19.66161141 5.69921875 17.33203125 C4.96527459 15.82594509 4.23217647 14.3194463 3.5 12.8125 C2.97466675 11.75385742 2.97466675 11.75385742 2.4387207 10.67382812 C0.67375118 6.98129687 -0.44772242 4.11744724 0 0 Z " fill="#5D36D9" transform="translate(161,124)"/>
<path d="M0 0 C0.33 1.32 0.66 2.64 1 4 C0.34 4 -0.32 4 -1 4 C-0.97679688 4.67546875 -0.95359375 5.3509375 -0.9296875 6.046875 C-0.90261719 7.38492188 -0.90261719 7.38492188 -0.875 8.75 C-0.85179688 9.63171875 -0.82859375 10.5134375 -0.8046875 11.421875 C-1.00860498 14.1135858 -1.63448279 15.69904974 -3 18 C-2.34 18.33 -1.68 18.66 -1 19 C-1.625 21.375 -1.625 21.375 -3 24 C-3.969375 24.268125 -4.93875 24.53625 -5.9375 24.8125 C-9.07027656 25.64347344 -9.07027656 25.64347344 -9.98828125 27.859375 C-10.48644934 29.30023039 -10.9454589 30.75537674 -11.359375 32.22265625 C-12 34 -12 34 -14 35 C-14.1550187 25.23382217 -9.8384483 18.34136608 -5.15771484 10.09277344 C-3.32647454 6.78248414 -1.66719934 3.3954403 0 0 Z " fill="#E59BEA" transform="translate(107,73)"/>
<path d="M0 0 C0.99 0.33 1.98 0.66 3 1 C2.938125 1.721875 2.87625 2.44375 2.8125 3.1875 C3.03523932 6.52858974 4.1282246 8.27032755 6 11 C6.33 9.68 6.66 8.36 7 7 C7.99 7.33 8.98 7.66 10 8 C9.62875 9.051875 9.2575 10.10375 8.875 11.1875 C7.89809057 15.44403395 8.04064718 16.25941735 10 20 C12.82732492 25.75443777 14.53302065 30.57903392 15 37 C11.08875849 32.13689457 8.52731881 26.50152546 5.73730469 20.95507812 C4.75025734 19.0005096 3.74647837 17.0551272 2.7421875 15.109375 C2.11353153 13.86511419 1.48589185 12.62033928 0.859375 11.375 C0.00037598 9.68503906 0.00037598 9.68503906 -0.87597656 7.9609375 C-2.01337376 4.96477044 -2.28193172 3.87801271 -1 1 C-0.67 0.67 -0.34 0.34 0 0 Z " fill="#5349D3" transform="translate(183,164)"/>
<path d="M0 0 C0.66 0 1.32 0 2 0 C3.32 2.97 4.64 5.94 6 9 C0.90968245 9.04936158 -4.18049643 9.08570105 -9.27099609 9.10986328 C-11.00344265 9.11993376 -12.73587216 9.13359089 -14.46826172 9.15087891 C-16.95544639 9.17508162 -19.44240675 9.18647239 -21.9296875 9.1953125 C-22.70682098 9.20563507 -23.48395447 9.21595764 -24.28463745 9.22659302 C-26.19125493 9.22699271 -28.09731036 9.1223214 -30 9 C-30.66 8.34 -31.32 7.68 -32 7 C-31.34 5.68 -30.68 4.36 -30 3 C-27.03 3.495 -27.03 3.495 -24 4 C-23.67 3.01 -23.34 2.02 -23 1 C-22.67 1.99 -22.34 2.98 -22 4 C-22.33 4.66 -22.66 5.32 -23 6 C-21.64068359 5.98259766 -21.64068359 5.98259766 -20.25390625 5.96484375 C-13.40496536 5.91411085 -6.786092 6.06398731 0 7 C0 4.69 0 2.38 0 0 Z " fill="#2113BE" transform="translate(169,184)"/>
<path d="M0 0 C0.66 0.33 1.32 0.66 2 1 C0.61496499 5.60279312 -1.30677666 9.68628367 -3.625 13.875 C-7.94694835 21.82116056 -11.99118302 29.8923926 -16 38 C-16.33 38.66 -16.66 39.32 -17 40 C-17.66 40 -18.32 40 -19 40 C-19.625 38.125 -19.625 38.125 -20 36 C-19.34 35.34 -18.68 34.68 -18 34 C-15.99207152 30.98810728 -15.11601284 28.41778932 -14 25 C-13.0625 22.6875 -13.0625 22.6875 -12 21 C-11.01 20.67 -10.02 20.34 -9 20 C-8.505 15.545 -8.505 15.545 -8 11 C-7.34 11 -6.68 11 -6 11 C-4.91145144 8.96804269 -4.04274287 7.20150212 -3.5625 4.9375 C-2.88216678 2.59413001 -1.81812041 1.58097427 0 0 Z " fill="#EAC0EE" transform="translate(90,175)"/>
<path d="M0 0 C0.99 0 1.98 0 3 0 C4.5307023 2.79678851 6.01839355 5.61443906 7.5 8.4375 C7.92925781 9.22060547 8.35851562 10.00371094 8.80078125 10.81054688 C11.76285642 16.52312042 12.46310523 20.57441494 12 27 C10.68 27 9.36 27 8 27 C8.33 25.35 8.66 23.7 9 22 C8.34 21.67 7.68 21.34 7 21 C7.33 19.02 7.66 17.04 8 15 C7.01 15.33 6.02 15.66 5 16 C4.67 14.02 4.34 12.04 4 10 C2.35 10 0.7 10 -1 10 C-0.67 6.7 -0.34 3.4 0 0 Z " fill="#3B34D1" transform="translate(203,143)"/>
<path d="M0 0 C2.69418809 0.61702559 4.49569251 1.30303331 6.14648438 3.58447266 C7.26306799 5.6293067 8.27106192 7.69837025 9.25 9.8125 C9.600625 10.52470703 9.95125 11.23691406 10.3125 11.97070312 C12.06642716 15.61684785 13.45882275 18.94912911 14 23 C12.02 23.66 10.04 24.32 8 25 C8.05800781 24.40832031 8.11601562 23.81664063 8.17578125 23.20703125 C8.49609452 17.71527416 8.49609452 17.71527416 5.6875 13.0625 C3.83925077 11.64407617 1.9385078 10.29233853 0 9 C0.66 7.35 1.32 5.7 2 4 C1.34 4 0.68 4 0 4 C0 2.68 0 1.36 0 0 Z " fill="#5533D7" transform="translate(162,63)"/>
<path d="M0 0 C0.66 0 1.32 0 2 0 C2.66 0.66 3.32 1.32 4 2 C4.69029297 2.57621094 4.69029297 2.57621094 5.39453125 3.1640625 C7.79097127 5.90451703 9.17286728 9.0990929 10.6875 12.375 C11.00783203 13.035 11.32816406 13.695 11.65820312 14.375 C13.37485744 18.04988472 14.41654364 20.92887537 14 25 C13.01 24.34 12.02 23.68 11 23 C11 22.01 11 21.02 11 20 C10.01 20 9.02 20 8 20 C7.34 19.34 6.68 18.68 6 18 C6 17.01 6 16.02 6 15 C6.66 15 7.32 15 8 15 C7.505 14.5875 7.01 14.175 6.5 13.75 C5 12 5 12 5 8 C4.01 8.33 3.02 8.66 2 9 C2 8.34 2 7.68 2 7 C1.34 6.67 0.68 6.34 0 6 C0 4.02 0 2.04 0 0 Z " fill="#7B45D7" transform="translate(146,33)"/>
<path d="M0 0 C6.05061546 -0.02472278 12.10120149 -0.04287086 18.15185547 -0.05493164 C20.21012891 -0.05995973 22.26839878 -0.06678306 24.32666016 -0.07543945 C27.28549074 -0.08757166 30.24427408 -0.09324357 33.203125 -0.09765625 C34.12305237 -0.10281754 35.04297974 -0.10797882 35.99078369 -0.11329651 C36.8513739 -0.11337204 37.71196411 -0.11344757 38.59863281 -0.11352539 C39.35364075 -0.115746 40.10864868 -0.11796661 40.88653564 -0.12025452 C43.0393723 0.00224025 44.93080737 0.40871581 47 1 C47 1.66 47 2.32 47 3 C45.63875 2.938125 45.63875 2.938125 44.25 2.875 C41.07863131 2.76177501 41.07863131 2.76177501 38.875 4.125 C38.25625 4.41375 37.6375 4.7025 37 5 C36.4117041 4.69280029 35.8234082 4.38560059 35.21728516 4.0690918 C32.5245179 2.77074035 30.62863636 2.75636281 27.6484375 2.76953125 C26.63265625 2.77146484 25.616875 2.77339844 24.5703125 2.77539062 C23.51585937 2.78763672 22.46140625 2.79988281 21.375 2.8125 C20.3128125 2.81314453 19.250625 2.81378906 18.15625 2.81445312 C12.91082811 2.61160649 12.91082811 2.61160649 8 4 C7.67 3.34 7.34 2.68 7 2 C4.67843403 1.59270772 2.3431213 1.25561323 0 1 C0 0.67 0 0.34 0 0 Z " fill="#16D6B6" transform="translate(202,230)"/>
<path d="M0 0 C1.60293085 0.04234573 3.20571762 0.09037064 4.80834961 0.14282227 C6.07140175 0.17823875 6.07140175 0.17823875 7.35997009 0.21437073 C10.06037467 0.29119796 12.76050607 0.37513964 15.46069336 0.45922852 C17.28685168 0.51243015 19.1130235 0.56517066 20.93920898 0.61743164 C25.42571145 0.74683873 29.91198137 0.8826285 34.39819336 1.02172852 C34.39819336 1.35172852 34.39819336 1.68172852 34.39819336 2.02172852 C23.17819336 2.35172852 11.95819336 2.68172852 0.39819336 3.02172852 C-2.57180664 8.63172852 -5.54180664 14.24172852 -8.60180664 20.02172852 C-9.26180664 20.02172852 -9.92180664 20.02172852 -10.60180664 20.02172852 C-10.60180664 18.04172852 -10.60180664 16.06172852 -10.60180664 14.02172852 C-9.61180664 14.02172852 -8.62180664 14.02172852 -7.60180664 14.02172852 C-7.27180664 12.37172852 -6.94180664 10.72172852 -6.60180664 9.02172852 C-5.94180664 9.02172852 -5.28180664 9.02172852 -4.60180664 9.02172852 C-4.62243164 7.72235352 -4.64305664 6.42297852 -4.66430664 5.08422852 C-4.68580119 3.73007218 -4.67328863 2.37416769 -4.60180664 1.02172852 C-3.60180664 0.02172852 -3.60180664 0.02172852 0 0 Z " fill="#D2ACEF" transform="translate(139.601806640625,191.978271484375)"/>
<path d="M0 0 C1.66611905 -0.042721 3.33382885 -0.04063832 5 0 C6 1 6 1 6.11352539 3.68383789 C6.10828857 4.85164795 6.10305176 6.01945801 6.09765625 7.22265625 C6.09443359 8.48271484 6.09121094 9.74277344 6.08789062 11.04101562 C6.07953403 12.38151109 6.07106907 13.72200588 6.0625 15.0625 C6.0574866 16.40689942 6.05292342 17.7513006 6.04882812 19.09570312 C6.03699488 22.39717941 6.02050971 25.69856803 6 29 C4.02 29.33 2.04 29.66 0 30 C0.66 29.34 1.32 28.68 2 28 C2.37239227 25.18597317 2.37239227 25.18597317 2.4140625 21.8984375 C2.45273438 20.68671875 2.49140625 19.475 2.53125 18.2265625 C2.5621875 16.95554688 2.593125 15.68453125 2.625 14.375 C2.66367188 13.09625 2.70234375 11.8175 2.7421875 10.5 C2.83671049 7.33347983 2.92226357 4.1669696 3 1 C2.01 0.67 1.02 0.34 0 0 Z " fill="#6B22EC" transform="translate(124,230)"/>
<path d="M0 0 C0.66 0.99 1.32 1.98 2 3 C1.34 3.66 0.68 4.32 0 5 C-0.82292616 7.473087 -1.46252318 9.97080302 -2.12109375 12.4921875 C-3.0533567 15.15224444 -4.10762156 16.9188677 -6 19 C-6.66 19 -7.32 19 -8 19 C-7.95875 20.093125 -7.9175 21.18625 -7.875 22.3125 C-8 26 -8 26 -10 29 C-10 29.66 -10 30.32 -10 31 C-10.66 31 -11.32 31 -12 31 C-12 31.66 -12 32.32 -12 33 C-12.66 32.67 -13.32 32.34 -14 32 C-12.74995474 24.93298275 -10.47077323 19.43985006 -7 13.1875 C-6.10409496 11.53519513 -5.20825909 9.88285275 -4.3125 8.23046875 C-3.91675781 7.51270264 -3.52101563 6.79493652 -3.11328125 6.05541992 C-2.03090587 4.05706063 -1.00469332 2.03834612 0 0 Z " fill="#DF75EC" transform="translate(121,157)"/>
<path d="M0 0 C0 3.06062874 -0.36441423 4.08632399 -1.71484375 6.72265625 C-2.07126953 7.42583984 -2.42769531 8.12902344 -2.79492188 8.85351562 C-3.17197266 9.58248047 -3.54902344 10.31144531 -3.9375 11.0625 C-4.31068359 11.79533203 -4.68386719 12.52816406 -5.06835938 13.28320312 C-5.76023932 14.64078378 -6.45457116 15.99711953 -7.15209961 17.35180664 C-7.77569203 18.56397838 -8.3903726 19.7807452 -9 21 C-9.66 21 -10.32 21 -11 21 C-11.93423645 17.98968256 -12.04449911 17.13349732 -11 14 C-10.96079185 12.00038436 -10.95556653 9.99950636 -11 8 C-9.6078125 7.6596875 -9.6078125 7.6596875 -8.1875 7.3125 C-4.44866356 5.77297911 -3.79760571 4.50533113 -2 1 C-1.34 0.67 -0.68 0.34 0 0 Z " fill="#E7A8EB" transform="translate(102,155)"/>
<path d="M0 0 C0.99 0 1.98 0 3 0 C3 0.66 3 1.32 3 2 C3.66 2 4.32 2 5 2 C6.31746333 4.58090767 7.62909617 7.16450458 8.9375 9.75 C9.31068359 10.47960938 9.68386719 11.20921875 10.06835938 11.9609375 C10.42607422 12.66992188 10.78378906 13.37890625 11.15234375 14.109375 C11.48226318 14.75874023 11.81218262 15.40810547 12.15209961 16.07714844 C13.01452116 18.03293079 13.54374179 19.91540694 14 22 C13.01 22 12.02 22 11 22 C7.9075343 18.04164391 7.05940265 13.80805818 6 9 C5.34 9 4.68 9 4 9 C3.34 7.35 2.68 5.7 2 4 C1.5978125 5.2065625 1.5978125 5.2065625 1.1875 6.4375 C0.5996875 7.7059375 0.5996875 7.7059375 0 9 C-0.99 9.33 -1.98 9.66 -3 10 C-2.49287967 6.28111761 -1.88391785 3.26545761 0 0 Z " fill="#9962D5" transform="translate(137,14)"/>
<path d="M0 0 C1.32 0.33 2.64 0.66 4 1 C4 9.91 4 18.82 4 28 C3.34 28 2.68 28 2 28 C1.14268873 21.83312228 0.71315753 15.71811088 0.4375 9.5 C0.39431641 8.5821875 0.35113281 7.664375 0.30664062 6.71875 C0.20166544 4.47927939 0.09950752 2.23971908 0 0 Z " fill="#2911EC" transform="translate(132,231)"/>
<path d="M0 0 C1.98 0 3.96 0 6 0 C7.5066972 2.7881022 9.00419804 5.58103958 10.5 8.375 C10.92925781 9.1690625 11.35851562 9.963125 11.80078125 10.78125 C12.40986328 11.92207031 12.40986328 11.92207031 13.03125 13.0859375 C13.59682617 14.1385376 13.59682617 14.1385376 14.17382812 15.21240234 C15 17 15 17 15 19 C13 19 13 19 10.875 17 C10.25625 16.34 9.6375 15.68 9 15 C8.01 15.495 8.01 15.495 7 16 C4.5978396 11.1956792 4.38877771 6.26896105 4 1 C2.68 0.67 1.36 0.34 0 0 Z " fill="#40D996" transform="translate(245,230)"/>
<path d="M0 0 C1.86621094 0.26147461 1.86621094 0.26147461 4 1 C5.18847656 2.67407227 5.18847656 2.67407227 6.140625 4.81640625 C6.48867187 5.58017578 6.83671875 6.34394531 7.1953125 7.13085938 C7.71738281 8.33452148 7.71738281 8.33452148 8.25 9.5625 C8.79527344 10.77196289 8.79527344 10.77196289 9.3515625 12.00585938 C10.24763169 13.99843429 11.12964442 15.9960918 12 18 C10.68 18.33 9.36 18.66 8 19 C5.31706634 14.49959515 3.5095847 10.97257743 2.625 5.8125 C2.41875 5.214375 2.2125 4.61625 2 4 C1.01 3.67 0.02 3.34 -1 3 C-0.67 2.01 -0.34 1.02 0 0 Z " fill="#2E2CCF" transform="translate(230,197)"/>
<path d="M0 0 C3 1 3 1 4.3125 3.3125 C5 6 5 6 4.5625 8.0625 C2.1960846 10.99685509 -0.66365889 12.27004535 -4 14 C-3.66009167 8.62007164 -3.31442207 4.46726453 0 0 Z " fill="#A133EA" transform="translate(133,22)"/>
<path d="M0 0 C0.33 0.66 0.66 1.32 1 2 C2.98 2.495 2.98 2.495 5 3 C4.67 12.24 4.34 21.48 4 31 C2.68 30.67 1.36 30.34 0 30 C0.66 30 1.32 30 2 30 C1.86076952 25.93724554 1.71246082 21.87487143 1.5625 17.8125 C1.52318359 16.66201172 1.48386719 15.51152344 1.44335938 14.32617188 C1.40146484 13.21435547 1.35957031 12.10253906 1.31640625 10.95703125 C1.27974854 9.93585205 1.24309082 8.91467285 1.20532227 7.86254883 C1.01159937 5.16171537 0.59548047 2.63833872 0 0 Z " fill="#A633EF" transform="translate(120,228)"/>
<path d="M0 0 C1.45146492 4.78674603 -0.14677205 7.92025687 -2 12.4375 C-3.22268688 15.57063513 -4.11019384 18.75856329 -5 22 C-5.66 21.34 -6.32 20.68 -7 20 C-7.99 20.66 -8.98 21.32 -10 22 C-9.34968323 18.96718632 -8.33488229 16.43497916 -6.93359375 13.671875 C-6.53076172 12.87265625 -6.12792969 12.0734375 -5.71289062 11.25 C-5.29201172 10.425 -4.87113281 9.6 -4.4375 8.75 C-4.01275391 7.90953125 -3.58800781 7.0690625 -3.15039062 6.203125 C-2.10385089 4.13356328 -1.05361686 2.06596521 0 0 Z " fill="#F2CAF6" transform="translate(92,213)"/>
<path d="M0 0 C0.66 0 1.32 0 2 0 C2.87144869 1.5529276 3.72153657 3.11785436 4.5625 4.6875 C5.03816406 5.55761719 5.51382813 6.42773438 6.00390625 7.32421875 C7.14268368 10.38328753 6.92718689 11.91863039 6 15 C5.01 15 4.02 15 3 15 C2.67 14.01 2.34 13.02 2 12 C1.01 12 0.02 12 -1 12 C-0.814375 10.9275 -0.62875 9.855 -0.4375 8.75 C-0.06151957 5.52731064 -0.08506734 3.97353115 -1 1 C-0.67 0.67 -0.34 0.34 0 0 Z " fill="#4F3FCF" transform="translate(187,109)"/>
<path d="M0 0 C0.33 0 0.66 0 1 0 C-0.10679612 13.10679612 -0.10679612 13.10679612 -5 18 C-6.00484883 20.33124929 -7.00522247 22.66443537 -8 25 C-8.66 25.33 -9.32 25.66 -10 26 C-9.67 24.02 -9.34 22.04 -9 20 C-8.34 20 -7.68 20 -7 20 C-7.0721875 19.16210938 -7.144375 18.32421875 -7.21875 17.4609375 C-6.95367635 13.26709363 -5.45918571 10.2483589 -3.5 6.625 C-2.99919922 5.66400391 -2.99919922 5.66400391 -2.48828125 4.68359375 C-1.66973549 3.11666329 -0.83635487 1.55749759 0 0 Z " fill="#DA6EE9" transform="translate(115,57)"/>
<path d="M0 0 C1.30062431 3.81516464 0.89369853 7.27561763 0.5625 11.25 C0.46066406 12.51328125 0.35882813 13.7765625 0.25390625 15.078125 C0.17011719 16.04234375 0.08632812 17.0065625 0 18 C0.68964844 17.91621094 1.37929687 17.83242188 2.08984375 17.74609375 C8.28433085 17.07481188 13.8502722 16.90891926 20 18 C20.33 18.66 20.66 19.32 21 20 C13.74 20 6.48 20 -1 20 C-1.0309375 15.3284375 -1.0309375 15.3284375 -1.0625 10.5625 C-1.071604 9.57967041 -1.08070801 8.59684082 -1.09008789 7.58422852 C-1.09258545 6.81522217 -1.09508301 6.04621582 -1.09765625 5.25390625 C-1.10551147 4.06776733 -1.10551147 4.06776733 -1.11352539 2.85766602 C-1 1 -1 1 0 0 Z " fill="#0C1FDA" transform="translate(137,240)"/>
<path d="M0 0 C1.7074998 1.28062485 3.37373596 2.61767557 5 4 C5 4.66 5 5.32 5 6 C4.01 6.33 3.02 6.66 2 7 C2 6.34 2 5.68 2 5 C0.35 5.33 -1.3 5.66 -3 6 C-2.814375 6.886875 -2.62875 7.77375 -2.4375 8.6875 C-2.01446625 11.89046979 -2.06376347 13.93595318 -3 17 C-3.66 17.66 -4.32 18.32 -5 19 C-5.99 18.01 -6.98 17.02 -8 16 C-5.00040139 5.04401927 -5.00040139 5.04401927 -2 1 C-1.34 0.67 -0.68 0.34 0 0 Z " fill="#C83FF7" transform="translate(125,156)"/>
<path d="M0 0 C0.66 0 1.32 0 2 0 C6 5.29411765 6 5.29411765 6 9 C5.01 9 4.02 9 3 9 C2.87625 8.360625 2.7525 7.72125 2.625 7.0625 C2.41875 6.381875 2.2125 5.70125 2 5 C1.34 4.67 0.68 4.34 0 4 C0.103125 5.258125 0.20625 6.51625 0.3125 7.8125 C0.33203125 10.01953125 0.33203125 10.01953125 0 12 C-2.5 14 -2.5 14 -5 15 C-4.72706899 8.8590522 -4.02720165 4.75942013 0 0 Z " fill="#9242E1" transform="translate(138,125)"/>
<path d="M0 0 C0.99 0.33 1.98 0.66 3 1 C2.938125 1.721875 2.87625 2.44375 2.8125 3.1875 C3.03523932 6.52858974 4.1282246 8.27032755 6 11 C6.33 9.68 6.66 8.36 7 7 C7.99 7.33 8.98 7.66 10 8 C9.01 10.97 8.02 13.94 7 17 C6.67 16.01 6.34 15.02 6 14 C5.34 14 4.68 14 4 14 C4 13.01 4 12.02 4 11 C3.01 11 2.02 11 1 11 C-2.0653951 5.60490463 -2.0653951 5.60490463 -1.75 2.6875 C-1 1 -1 1 0 0 Z " fill="#4732D7" transform="translate(183,164)"/>
<path d="M0 0 C0.33 0.66 0.66 1.32 1 2 C1.63550781 2.12246094 2.27101562 2.24492188 2.92578125 2.37109375 C5 3 5 3 6.23046875 4.78515625 C8.39471506 9.9351791 9.59425193 14.42096402 10 20 C9.01 19.01 8.02 18.02 7 17 C6.34 17.33 5.68 17.66 5 18 C4.34 17.34 3.68 16.68 3 16 C3.350625 15.443125 3.70125 14.88625 4.0625 14.3125 C5.21845993 11.46113217 4.80967438 9.91482778 4 7 C3.34 7 2.68 7 2 7 C1.67 6.01 1.34 5.02 1 4 C0.01 4.495 0.01 4.495 -1 5 C-0.67 3.35 -0.34 1.7 0 0 Z " fill="#4A2DD4" transform="translate(175,88)"/>
<path d="M0 0 C1.37562854 1.28965176 2.70766393 2.62689293 4 4 C4 4.66 4 5.32 4 6 C5.32 5.67 6.64 5.34 8 5 C9.25 11.625 9.25 11.625 7 15 C6.34 15 5.68 15 5 15 C4.15415002 13.44424022 3.32381601 11.8800388 2.5 10.3125 C2.0359375 9.44238281 1.571875 8.57226562 1.09375 7.67578125 C-0.04818792 4.88211171 -0.21504208 2.98370887 0 0 Z " fill="#7234EC" transform="translate(153,109)"/>
<path d="M0 0 C0.66 0.99 1.32 1.98 2 3 C1.54625 3.804375 1.0925 4.60875 0.625 5.4375 C-0.72409567 8.39513282 -1.36447325 10.50174608 -1.9375 13.625 C-2.71394988 17.49419981 -3.68612101 19.61814948 -7 22 C-7.66 22 -8.32 22 -9 22 C-9.33 22.66 -9.66 23.32 -10 24 C-9.4702485 18.66109821 -7.58987722 14.89006271 -5 10.3125 C-2.17375163 5.3086063 -2.17375163 5.3086063 0 0 Z " fill="#AA51DF" transform="translate(132,135)"/>
<path d="M0 0 C0.99 0.66 1.98 1.32 3 2 C2.66226563 2.51949219 2.32453125 3.03898437 1.9765625 3.57421875 C1.53054687 4.27160156 1.08453125 4.96898438 0.625 5.6875 C0.18414062 6.37199219 -0.25671875 7.05648437 -0.7109375 7.76171875 C-2.0640319 9.98444723 -2.0640319 9.98444723 -2.9765625 12.48046875 C-4.054189 15.13340421 -5.38034835 17.26840685 -7 19.625 C-7.515625 20.38039062 -8.03125 21.13578125 -8.5625 21.9140625 C-9.036875 22.60242188 -9.51125 23.29078125 -10 24 C-10.66 24.99 -11.32 25.98 -12 27 C-11.45791842 22.77661816 -10.50788927 19.5664145 -8.49609375 15.8203125 C-7.75649414 14.428125 -7.75649414 14.428125 -7.00195312 13.0078125 C-6.48568359 12.05648437 -5.96941406 11.10515625 -5.4375 10.125 C-4.91736328 9.15046875 -4.39722656 8.1759375 -3.86132812 7.171875 C-2.58175363 4.77707502 -1.2944962 2.38675718 0 0 Z " fill="#F6DFF8" transform="translate(83,120)"/>
<path d="M0 0 C0.33 0.66 0.66 1.32 1 2 C2.32 2 3.64 2 5 2 C7.22656164 6.74354436 8.46148032 10.72250715 9 16 C7.02 16.99 7.02 16.99 5 18 C5.04125 16.948125 5.0825 15.89625 5.125 14.8125 C5.00731506 11.22310921 4.80792162 9.07346675 3 6 C0.97536745 5.34786708 0.97536745 5.34786708 -1 5 C-1.33 4.01 -1.66 3.02 -2 2 C-1.34 1.34 -0.68 0.68 0 0 Z " fill="#1817D4" transform="translate(221,180)"/>
<path d="M0 0 C1.32 0 2.64 0 4 0 C2.58444362 4.8364843 0.5624402 8.70171321 -2 13 C-2.33 13.66 -2.66 14.32 -3 15 C-5.5625 15.625 -5.5625 15.625 -8 16 C-8 14.68 -8 13.36 -8 12 C-7.01 12 -6.02 12 -5 12 C-5 11.01 -5 10.02 -5 9 C-4.34 9 -3.68 9 -3 9 C-2.67 7.35 -2.34 5.7 -2 4 C-1.34 4 -0.68 4 0 4 C0 2.68 0 1.36 0 0 Z " fill="#D87EE7" transform="translate(114,126)"/>
<path d="M0 0 C1.65 0 3.3 0 5 0 C5.34933594 0.78246094 5.69867188 1.56492187 6.05859375 2.37109375 C6.51363281 3.38300781 6.96867188 4.39492187 7.4375 5.4375 C7.88996094 6.44683594 8.34242188 7.45617187 8.80859375 8.49609375 C9.77448202 10.8860471 9.77448202 10.8860471 11 12 C11.04092937 14.33297433 11.04241723 16.66705225 11 19 C7.70269403 14.87836754 4.20660002 10.4275502 3.75 5.0625 C3.8325 4.381875 3.915 3.70125 4 3 C2.68 2.67 1.36 2.34 0 2 C0 1.34 0 0.68 0 0 Z " fill="#923EDD" transform="translate(136,82)"/>
<path d="M0 0 C0.66 0.33 1.32 0.66 2 1 C2.59672183 8.51869512 1.14352972 12.74031045 -3 19 C-3.66 18.67 -4.32 18.34 -5 18 C-5 17.34 -5 16.68 -5 16 C-4.34 16 -3.68 16 -3 16 C-3.03480469 15.43152344 -3.06960937 14.86304688 -3.10546875 14.27734375 C-3.30230592 8.66279774 -2.55495317 5.00344995 0 0 Z " fill="#B74AE4" transform="translate(125,210)"/>
<path d="M0 0 C0.66 0.99 1.32 1.98 2 3 C1.34 4.32 0.68 5.64 0 7 C0.66 7.33 1.32 7.66 2 8 C1.4375 10.375 1.4375 10.375 0 13 C-3.625 14.3125 -3.625 14.3125 -7 15 C-6.67 13.35 -6.34 11.7 -6 10 C-5.01 10 -4.02 10 -3 10 C-3 8.02 -3 6.04 -3 4 C-2.01 3.67 -1.02 3.34 0 3 C0 2.01 0 1.02 0 0 Z " fill="#F26BF9" transform="translate(104,84)"/>
<path d="M0 0 C2.3125 0.125 2.3125 0.125 5 1 C7.17198542 4.18557861 8.10800103 6.00639052 7.6875 9.875 C7.460625 10.57625 7.23375 11.2775 7 12 C6.54625 11.505 6.0925 11.01 5.625 10.5 C4.12364481 8.77390663 4.12364481 8.77390663 2 9 C0.14223235 5.86501708 -0.20140476 3.62528568 0 0 Z " fill="#332CD6" transform="translate(162,175)"/>
<path d="M0 0 C2 2 2 2 2.4375 4.6875 C1.86112286 9.05149838 -0.08109031 11.76527386 -3 15 C-3.33 15 -3.66 15 -4 15 C-4.45356243 8.53673535 -3.59378942 5.39068413 0 0 Z " fill="#D043F2" transform="translate(120,48)"/>
<path d="M0 0 C1.54561243 4.83843892 0.63394307 9.27099169 -1 14 C-3.625 16.625 -3.625 16.625 -6 18 C-5.65532373 10.76179827 -3.89785009 6.08409811 0 0 Z " fill="#EBA3F0" transform="translate(98,202)"/>
<path d="M0 0 C0.33 0.66 0.66 1.32 1 2 C1.99 1.67 2.98 1.34 4 1 C2.3341708 7.16356805 -0.87805286 12.48259656 -4 18 C-4.66 18 -5.32 18 -6 18 C-6.625 16.125 -6.625 16.125 -7 14 C-6.34 13.34 -5.68 12.68 -5 12 C-2.99442596 8.99163894 -2.07140986 6.42851156 -1 3 C-0.67 2.01 -0.34 1.02 0 0 Z " fill="#F6E8F6" transform="translate(77,197)"/>
<path d="M0 0 C0.99 0 1.98 0 3 0 C5 3 5 3 4.8125 4.875 C3.79375397 7.53941269 2.71633748 9.71155003 1 12 C-0.32 12 -1.64 12 -3 12 C-3 10.68 -3 9.36 -3 8 C-2.484375 7.505 -1.96875 7.01 -1.4375 6.5 C-0.963125 6.005 -0.48875 5.51 0 5 C-0.3185177 2.89179203 -0.3185177 2.89179203 -1 1 C-0.67 0.67 -0.34 0.34 0 0 Z " fill="#D064E9" transform="translate(117,114)"/>
<path d="M0 0 C0.99 0.66 1.98 1.32 3 2 C3 3.32 3 4.64 3 6 C3.66 6 4.32 6 5 6 C5.66 7.98 6.32 9.96 7 12 C4.525 11.01 4.525 11.01 2 10 C1.34 10.66 0.68 11.32 0 12 C-1.57312496 8.32937509 -2.14440048 6.55697326 -1.125 2.625 C-0.75375 1.75875 -0.3825 0.8925 0 0 Z " fill="#8E2CEC" transform="translate(138,17)"/>
<path d="M0 0 C0.99 0 1.98 0 3 0 C6.16727335 5.1468192 6.35050464 9.158256 6 15 C4.68 15 3.36 15 2 15 C2.33 13.35 2.66 11.7 3 10 C2.34 9.67 1.68 9.34 1 9 C1.33 7.02 1.66 5.04 2 3 C1.01 3.33 0.02 3.66 -1 4 C-0.67 2.68 -0.34 1.36 0 0 Z " fill="#1F19E0" transform="translate(209,155)"/>
<path d="M0 0 C0.66 0.33 1.32 0.66 2 1 C2 1.99 2 2.98 2 4 C3.32 4 4.64 4 6 4 C6 5.65 6 7.3 6 9 C4.02 9 2.04 9 0 9 C-1.76462683 5.91190305 -2 4.76687864 -2 1 C-1.34 0.67 -0.68 0.34 0 0 Z " fill="#0706E8" transform="translate(236,212)"/>
<path d="M0 0 C0.66 0 1.32 0 2 0 C5.59523599 5.73115109 7.62964591 10.21017493 8 17 C7.34 17 6.68 17 6 17 C4 14 4 14 4 10 C3.34 10 2.68 10 2 10 C1.33333333 6.66666667 0.66666667 3.33333333 0 0 Z " fill="#2F21D1" transform="translate(194,124)"/>
<path d="M0 0 C1.89213369 2.38573379 3.02391783 4.07175348 4 7 C1.90274363 9.09725637 -2.10523515 8.88184633 -5 9 C-6.33384906 8.66873639 -7.66708109 8.33498665 -9 8 C-11.58656673 7.77711499 -14.15952778 7.58685615 -16.75 7.4375 C-17.44738281 7.39431641 -18.14476562 7.35113281 -18.86328125 7.30664062 C-20.57531922 7.20110404 -22.28763561 7.1001009 -24 7 C-24 6.67 -24 6.34 -24 6 C-16.08 6 -8.16 6 0 6 C0 4.02 0 2.04 0 0 Z " fill="#48D98C" transform="translate(262,253)"/>
<path d="M0 0 C0.66 0.99 1.32 1.98 2 3 C1.34 3.66 0.68 4.32 0 5 C-0.51030852 6.60943458 -0.96207462 8.23787231 -1.375 9.875 C-2.51169283 13.90880226 -3.55962612 16.39006119 -7 19 C-6.71769203 11.51883867 -3.81655817 6.34925886 0 0 Z " fill="#CA6CE3" transform="translate(121,157)"/>
<path d="M0 0 C3.19838177 1.59919088 4.15921434 4.84723902 5.6875 7.9375 C6.02072266 8.58396484 6.35394531 9.23042969 6.69726562 9.89648438 C7.5312171 11.56612112 8.27287385 13.28114879 9 15 C8.67 15.66 8.34 16.32 8 17 C5.5 14.75 5.5 14.75 3 12 C3 10.68 3 9.36 3 8 C2.34 8 1.68 8 1 8 C0.67 5.36 0.34 2.72 0 0 Z " fill="#5145C9" transform="translate(157,159)"/>
<path d="M0 0 C0.66 0.33 1.32 0.66 2 1 C2.4140625 3.06640625 2.4140625 3.06640625 2.625 5.5625 C2.69976562 6.38878906 2.77453125 7.21507812 2.8515625 8.06640625 C2.92503906 9.02353516 2.92503906 9.02353516 3 10 C3.66 10 4.32 10 5 10 C5 10.66 5 11.32 5 12 C4.01 12 3.02 12 2 12 C1.67 12.66 1.34 13.32 1 14 C-1.68932396 9.12560033 -0.81589461 5.40530177 0 0 Z " fill="#3112DD" transform="translate(155,157)"/>
<path d="M0 0 C6 8 6 8 6 13 C6.66 13 7.32 13 8 13 C7.67 13.66 7.34 14.32 7 15 C6.34 15 5.68 15 5 15 C5 13.35 5 11.7 5 10 C3.35 10 1.7 10 0 10 C0 6.7 0 3.4 0 0 Z " fill="#6D4ED4" transform="translate(149,143)"/>
<path d="M0 0 C0.66 0 1.32 0 2 0 C1.855625 0.969375 1.71125 1.93875 1.5625 2.9375 C1.24362418 5.08226748 0.98441137 7.20066216 0.81640625 9.36328125 C0.75324219 10.15089844 0.69007812 10.93851563 0.625 11.75 C0.57601562 12.48734375 0.52703125 13.2246875 0.4765625 13.984375 C-0.10426783 16.44100165 -1.09898518 17.39379497 -3 19 C-3.38614349 12.1781317 -2.00865708 6.50422293 0 0 Z " fill="#EE70FA" transform="translate(105,192)"/>
<path d="M0 0 C0.66 0.66 1.32 1.32 2 2 C2.99 1.67 3.98 1.34 5 1 C4.625 3.9375 4.625 3.9375 4 7 C3.01 7.495 3.01 7.495 2 8 C0.86649466 10.01669827 0.86649466 10.01669827 0 12 C-1 11 -1 11 -1.1328125 8.75 C-1.13023437 7.8425 -1.12765625 6.935 -1.125 6 C-1.12757813 5.0925 -1.13015625 4.185 -1.1328125 3.25 C-1 1 -1 1 0 0 Z " fill="#9E30F1" transform="translate(131,194)"/>
<path d="M0 0 C1.32 0 2.64 0 4 0 C2.38102741 3.30081791 0.64075691 6.52557433 -1.125 9.75 C-1.66382813 10.73484375 -2.20265625 11.7196875 -2.7578125 12.734375 C-3.16773438 13.48203125 -3.57765625 14.2296875 -4 15 C-4.33 15 -4.66 15 -5 15 C-5 12.69 -5 10.38 -5 8 C-4.34 8 -3.68 8 -3 8 C-3 7.34 -3 6.68 -3 6 C-2.34 6 -1.68 6 -1 6 C-1.020625 5.195625 -1.04125 4.39125 -1.0625 3.5625 C-1 1 -1 1 0 0 Z " fill="#AB5DD5" transform="translate(136,85)"/>
<path d="M0 0 C3.53790403 3.69172595 3.59115883 7.09390595 4 12 C3.01 11.34 2.02 10.68 1 10 C1 9.01 1 8.02 1 7 C0.01 7 -0.98 7 -2 7 C-2.66 6.34 -3.32 5.68 -4 5 C-4 4.01 -4 3.02 -4 2 C-3.01 2.33 -2.02 2.66 -1 3 C-0.67 2.01 -0.34 1.02 0 0 Z " fill="#6A32DC" transform="translate(156,46)"/>
<path d="M0 0 C0.66 0.99 1.32 1.98 2 3 C0.8828125 6.13671875 0.8828125 6.13671875 -0.875 9.6875 C-1.44992188 10.86699219 -2.02484375 12.04648437 -2.6171875 13.26171875 C-3.30167969 14.61716797 -3.30167969 14.61716797 -4 16 C-4.99 16 -5.98 16 -7 16 C-5.35433477 10.31497465 -2.70967216 5.23318364 0 0 Z " fill="#BB76DE" transform="translate(128,31)"/>
<path d="M0 0 C0.34833144 4.87664009 -0.58314288 7.77050005 -3 12 C-3.66 12 -4.32 12 -5 12 C-4.91253716 10.56138706 -4.80434652 9.12402492 -4.6875 7.6875 C-4.62949219 6.88699219 -4.57148437 6.08648437 -4.51171875 5.26171875 C-3.99058337 2.95837994 -2.79582327 0 0 0 Z " fill="#B452DF" transform="translate(131,96)"/>
<path d="M0 0 C0.86866892 2.84099621 1.11430047 3.7041635 0.00390625 6.578125 C-0.47175781 7.45984375 -0.94742188 8.3415625 -1.4375 9.25 C-1.91058594 10.14203125 -2.38367188 11.0340625 -2.87109375 11.953125 C-3.24363281 12.62859375 -3.61617188 13.3040625 -4 14 C-4.66 14 -5.32 14 -6 14 C-6.33 15.32 -6.66 16.64 -7 18 C-7.33 17.34 -7.66 16.68 -8 16 C-7.37915039 14.30419922 -7.37915039 14.30419922 -6.34765625 12.3046875 C-5.98349609 11.58925781 -5.61933594 10.87382812 -5.24414062 10.13671875 C-4.85419922 9.39035156 -4.46425781 8.64398438 -4.0625 7.875 C-3.67642578 7.12089844 -3.29035156 6.36679688 -2.89257812 5.58984375 C-1.93547868 3.72290903 -0.96863894 1.86097372 0 0 Z " fill="#F9EBFA" transform="translate(81,235)"/>
<path d="M0 0 C0.33 0 0.66 0 1 0 C0.40546697 11.70615034 0.40546697 11.70615034 -3 16 C-4.32970606 13.34058788 -3.78286673 12.01188616 -3.1875 9.125 C-3.01605469 8.26132813 -2.84460938 7.39765625 -2.66796875 6.5078125 C-2.0312273 4.11723935 -1.19050529 2.1599885 0 0 Z " fill="#ECA0F0" transform="translate(97,92)"/>
<path d="M0 0 C0.99 0.33 1.98 0.66 3 1 C3.94921875 3.28515625 3.94921875 3.28515625 4.6875 6.0625 C4.93886719 6.98160156 5.19023437 7.90070313 5.44921875 8.84765625 C5.63097656 9.55792969 5.81273437 10.26820312 6 11 C3 11 3 11 0 9 C0.66 7.35 1.32 5.7 2 4 C1.34 4 0.68 4 0 4 C0 2.68 0 1.36 0 0 Z " fill="#4F1CE1" transform="translate(162,63)"/>
<path d="M0 0 C0.66 0 1.32 0 2 0 C2.66 1.32 3.32 2.64 4 4 C3.05016642 5.50539661 2.08988109 7.00420347 1.125 8.5 C0.59132813 9.3353125 0.05765625 10.170625 -0.4921875 11.03125 C-0.98976563 11.6809375 -1.48734375 12.330625 -2 13 C-2.66 13 -3.32 13 -4 13 C-3.67 11.68 -3.34 10.36 -3 9 C-2.34 9 -1.68 9 -1 9 C-0.67 6.03 -0.34 3.06 0 0 Z " fill="#F2D0F4" transform="translate(82,186)"/>
<path d="M0 0 C1.45002516 4.77171399 -0.03357399 7.95976731 -2.125 12.375 C-2.41375 12.91125 -2.7025 13.4475 -3 14 C-3.66 14 -4.32 14 -5 14 C-4.46515599 8.65155992 -2.53309233 4.64203897 0 0 Z " fill="#EFBEF1" transform="translate(92,213)"/>
<path d="M0 0 C0.66666667 1.33333333 1.33333333 2.66666667 2 4 C2.37125 4.639375 2.7425 5.27875 3.125 5.9375 C4.17440531 8.41109822 4.14780359 10.33953538 4 13 C2.35 12.67 0.7 12.34 -1 12 C-0.814375 10.9275 -0.62875 9.855 -0.4375 8.75 C-0.06151957 5.52731064 -0.08506734 3.97353115 -1 1 C-0.67 0.67 -0.34 0.34 0 0 Z " fill="#2A10E2" transform="translate(187,109)"/>
<path d="M0 0 C0.33 0.99 0.66 1.98 1 3 C-1.06756277 5.7972908 -2.14440371 6.02692273 -5.6875 6.6875 C-6.780625 6.790625 -7.87375 6.89375 -9 7 C-8.34 5.35 -7.68 3.7 -7 2 C-4.03 2.495 -4.03 2.495 -1 3 C-0.67 2.01 -0.34 1.02 0 0 Z " fill="#7524F0" transform="translate(146,185)"/>
<path d="M0 0 C1.70840281 1.63412443 2.93453047 2.86906094 4 5 C4.33 3.68 4.66 2.36 5 1 C5.99 1.33 6.98 1.66 8 2 C7.01 4.97 6.02 7.94 5 11 C4.67 10.01 4.34 9.02 4 8 C3.34 8 2.68 8 2 8 C1.34 5.36 0.68 2.72 0 0 Z " fill="#240DE9" transform="translate(185,170)"/>
<path d="M0 0 C1.7074998 1.28062485 3.37373596 2.61767557 5 4 C5 4.66 5 5.32 5 6 C4.01 6.33 3.02 6.66 2 7 C2 6.34 2 5.68 2 5 C0.35 5.33 -1.3 5.66 -3 6 C-3 6.66 -3 7.32 -3 8 C-3.66 8 -4.32 8 -5 8 C-4.690625 7.401875 -4.38125 6.80375 -4.0625 6.1875 C-2.89790296 3.91043228 -2.89790296 3.91043228 -2 1 C-1.34 0.67 -0.68 0.34 0 0 Z " fill="#B539F2" transform="translate(125,156)"/>
<path d="M0 0 C1.65 0 3.3 0 5 0 C5 1.98 5 3.96 5 6 C4.34 6 3.68 6 3 6 C3 6.66 3 7.32 3 8 C2.34 8 1.68 8 1 8 C0.67 8.66 0.34 9.32 0 10 C0.185625 9.0925 0.37125 8.185 0.5625 7.25 C0.95734621 4.31685676 0.94691572 2.7355343 0 0 Z " fill="#AE36F0" transform="translate(130,85)"/>
<path d="M0 0 C0.99 0 1.98 0 3 0 C3.33 1.65 3.66 3.3 4 5 C3.01 5 2.02 5 1 5 C0.896875 5.639375 0.79375 6.27875 0.6875 6.9375 C0.460625 7.618125 0.23375 8.29875 0 9 C-0.99 9.33 -1.98 9.66 -3 10 C-2.49287967 6.28111761 -1.88391785 3.26545761 0 0 Z " fill="#8949C9" transform="translate(137,14)"/>
<path d="M0 0 C0.99 0.33 1.98 0.66 3 1 C4.1875 4.5625 4.1875 4.5625 5 8 C4.01 8.33 3.02 8.66 2 9 C0.4375 7.875 0.4375 7.875 -1 6 C-0.6875 2.8125 -0.6875 2.8125 0 0 Z " fill="#7922EF" transform="translate(138,129)"/>
<path d="M0 0 C1.9375 0.5 1.9375 0.5 4 2 C4.68790422 4.69658452 4.81946464 7.2017019 5 10 C4.01 9.01 3.02 8.02 2 7 C1.01 7.495 1.01 7.495 0 8 C-0.66 7.34 -1.32 6.68 -2 6 C-1.67 5.38125 -1.34 4.7625 -1 4.125 C0.14193235 2.08981656 0.14193235 2.08981656 0 0 Z " fill="#3414D9" transform="translate(180,98)"/>
<path d="M0 0 C0.99 0.33 1.98 0.66 3 1 C3.33 2.65 3.66 4.3 4 6 C4.66 6 5.32 6 6 6 C6.33 8.64 6.66 11.28 7 14 C0 5.25 0 5.25 0 0 Z " fill="#5855CE" transform="translate(199,202)"/>
<path d="M0 0 C0.66 0 1.32 0 2 0 C3.32 2.97 4.64 5.94 6 9 C4.02 9 2.04 9 0 9 C0.33 8.34 0.66 7.68 1 7 C0.71758117 4.6599583 0.38749213 2.32495277 0 0 Z " fill="#3D39BD" transform="translate(169,184)"/>
<path d="M0 0 C0 0.33 0 0.66 0 1 C-4.95 1 -9.9 1 -15 1 C-14.67 0.34 -14.34 -0.32 -14 -1 C-8.78217876 -2.52716719 -5.06434289 -1.48437636 0 0 Z " fill="#5728BF" transform="translate(154,192)"/>
<path d="M0 0 C0.33 0 0.66 0 1 0 C1 2.31 1 4.62 1 7 C0.01 7.33 -0.98 7.66 -2 8 C-3.22520264 11.00847418 -3.22520264 11.00847418 -4 14 C-5.06528748 11.26980214 -5.07998186 10.20701188 -4.00390625 7.421875 C-3.52824219 6.54015625 -3.05257812 5.6584375 -2.5625 4.75 C-2.08941406 3.85796875 -1.61632812 2.9659375 -1.12890625 2.046875 C-0.75636719 1.37140625 -0.38382812 0.6959375 0 0 Z " fill="#DF8CE6" transform="translate(107,184)"/>
<path d="M0 0 C0.66 0 1.32 0 2 0 C6 5.29411765 6 5.29411765 6 9 C5.01 9 4.02 9 3 9 C2.67 7.68 2.34 6.36 2 5 C1.01 5 0.02 5 -1 5 C-0.67 3.35 -0.34 1.7 0 0 Z " fill="#885FCB" transform="translate(138,125)"/>
<path d="M0 0 C2.29013653 3.4352048 2.17842973 4.985331 2 9 C0.02 9.99 0.02 9.99 -2 11 C-1.649375 10.4225 -1.29875 9.845 -0.9375 9.25 C0.17436163 6.58153208 -0.21723259 5.69619886 -1 3 C-0.67 2.01 -0.34 1.02 0 0 Z M-3 11 C-2.67 12.32 -2.34 13.64 -2 15 C-2.66 15 -3.32 15 -4 15 C-3.67 13.68 -3.34 12.36 -3 11 Z " fill="#F3C3F5" transform="translate(85,115)"/>
<path d="M0 0 C2 0 2 0 3.625 1.5 C4.07875 1.995 4.5325 2.49 5 3 C4.67 3.66 4.34 4.32 4 5 C4.33 5.33 4.66 5.66 5 6 C5 6.66 5 7.32 5 8 C4.01 8.33 3.02 8.66 2 9 C2 8.34 2 7.68 2 7 C1.34 6.67 0.68 6.34 0 6 C0 4.02 0 2.04 0 0 Z " fill="#7726E4" transform="translate(146,33)"/>
<path d="M0 0 C2.53833449 1.26916725 2.89400901 2.41624809 4.125 4.9375 C4.47820312 5.64777344 4.83140625 6.35804688 5.1953125 7.08984375 C6 9 6 9 6 11 C5.34 11 4.68 11 4 11 C1.18236593 8.18236593 0.05391197 6.71433365 -0.25 2.6875 C-0.1675 1.800625 -0.085 0.91375 0 0 Z " fill="#51DB99" transform="translate(254,238)"/>
<path d="M0 0 C0.33 0.66 0.66 1.32 1 2 C2.32 2 3.64 2 5 2 C5.33 3.32 5.66 4.64 6 6 C3.69 5.67 1.38 5.34 -1 5 C-1.33 4.01 -1.66 3.02 -2 2 C-1.34 1.34 -0.68 0.68 0 0 Z " fill="#1E1CDF" transform="translate(221,180)"/>
<path d="M0 0 C0.66 0 1.32 0 2 0 C3.125 3.75 3.125 3.75 2 6 C-0.5625 6.625 -0.5625 6.625 -3 7 C-3 5.68 -3 4.36 -3 3 C-2.01 3 -1.02 3 0 3 C0 2.01 0 1.02 0 0 Z " fill="#DE71EB" transform="translate(109,135)"/>
<path d="M0 0 C0.99 0.33 1.98 0.66 3 1 C2.34 2.65 1.68 4.3 1 6 C0.34 6 -0.32 6 -1 6 C-1.33 6.99 -1.66 7.98 -2 9 C-2.66 8.67 -3.32 8.34 -4 8 C-2.68 5.36 -1.36 2.72 0 0 Z " fill="#AB66DE" transform="translate(133,22)"/>
<path d="M0 0 C0.33 0.66 0.66 1.32 1 2 C1.66 2 2.32 2 3 2 C3 4.31 3 6.62 3 9 C2.01 9.495 2.01 9.495 1 10 C-0.83691257 6.21812119 -1.15837626 4.05431692 0 0 Z " fill="#09E679" transform="translate(251,236)"/>
<path d="M0 0 C0.66 0.99 1.32 1.98 2 3 C0.35 5.97 -1.3 8.94 -3 12 C-3.66 12 -4.32 12 -5 12 C-3.41037341 7.96479403 -1.71767682 3.98188718 0 0 Z " fill="#B37BDF" transform="translate(132,135)"/>
<path d="M0 0 C1 3 1 3 0.1875 5.625 C-1 8 -1 8 -3 9 C-3.12375 8.195625 -3.2475 7.39125 -3.375 6.5625 C-3.684375 5.2940625 -3.684375 5.2940625 -4 4 C-4.66 3.67 -5.32 3.34 -6 3 C-4.02 2.67 -2.04 2.34 0 2 C0 1.34 0 0.68 0 0 Z " fill="#1309EA" transform="translate(200,186)"/>
<path d="M0 0 C0.66 0 1.32 0 2 0 C5 5.75 5 5.75 5 8 C1.125 6.125 1.125 6.125 0 5 C-0.04063832 3.33382885 -0.042721 1.66611905 0 0 Z " fill="#332DCC" transform="translate(214,163)"/>
<path d="M0 0 C0.66 0 1.32 0 2 0 C2 1.65 2 3.3 2 5 C1.34 4.34 0.68 3.68 0 3 C0 2.01 0 1.02 0 0 Z M0 5 C0.33 5.66 0.66 6.32 1 7 C1.66 7 2.32 7 3 7 C2.67 7.99 2.34 8.98 2 10 C1.01 10 0.02 10 -1 10 C-0.67 8.35 -0.34 6.7 0 5 Z " fill="#120AE1" transform="translate(203,143)"/>
<path d="M0 0 C0.66 0 1.32 0 2 0 C3.38232443 1.62626404 4.71937515 3.2925002 6 5 C4.1875 6.0625 4.1875 6.0625 2 7 C1.01 6.67 0.02 6.34 -1 6 C-0.67 4.02 -0.34 2.04 0 0 Z " fill="#942FEA" transform="translate(131,140)"/>
<path d="M0 0 C0.66 0.33 1.32 0.66 2 1 C1.38302681 2.48253267 0.75616104 3.96095174 0.125 5.4375 C-0.22304687 6.26121094 -0.57109375 7.08492188 -0.9296875 7.93359375 C-2 10 -2 10 -4 11 C-3.67 9.02 -3.34 7.04 -3 5 C-2.34 5 -1.68 5 -1 5 C-0.67 3.35 -0.34 1.7 0 0 Z " fill="#E55EED" transform="translate(109,72)"/>
<path d="M0 0 C0.87324262 2.44507934 1.10151327 3.67700322 0.3125 6.1875 C-1 8 -1 8 -3.125 8.75 C-4.053125 8.87375 -4.053125 8.87375 -5 9 C-5.33 8.34 -5.66 7.68 -6 7 C-5.071875 6.1028125 -5.071875 6.1028125 -4.125 5.1875 C-1.86323046 2.99188856 -1.86323046 2.99188856 0 0 Z " fill="#C73FF6" transform="translate(124,211)"/>
<path d="M0 0 C0.33 0 0.66 0 1 0 C1 3.3 1 6.6 1 10 C0.01 10.495 0.01 10.495 -1 11 C-2.23825459 7.28523623 -1.70587257 4.81171187 -1 1 C-0.67 0.67 -0.34 0.34 0 0 Z " fill="#551AEB" transform="translate(149,153)"/>
<path d="M0 0 C0.33 0.66 0.66 1.32 1 2 C1.99 2 2.98 2 4 2 C3.67 4.31 3.34 6.62 3 9 C0.86928411 6.40608501 -0.53582673 4.36525621 -1 1 C-0.67 0.67 -0.34 0.34 0 0 Z " fill="#975ADB" transform="translate(148,100)"/>
<path d="M0 0 C0.33 0.99 0.66 1.98 1 3 C1.66 3 2.32 3 3 3 C4.0625 4.8125 4.0625 4.8125 5 7 C4.67 7.99 4.34 8.98 4 10 C1 8 1 8 0.48828125 6.0546875 C0.32552083 4.03645833 0.16276042 2.01822917 0 0 Z " fill="#7F62CF" transform="translate(160,54)"/>
<path d="M0 0 C1.485 0.99 1.485 0.99 3 2 C3 2.66 3 3.32 3 4 C3.99 4 4.98 4 6 4 C6.33 5.32 6.66 6.64 7 8 C6.01 8 5.02 8 4 8 C3.34 6.35 2.68 4.7 2 3 C1.34 3 0.68 3 0 3 C0 2.01 0 1.02 0 0 Z " fill="#33DF7F" transform="translate(255,245)"/>
<path d="M0 0 C3 3.625 3 3.625 3 7 C2.01 7.33 1.02 7.66 0 8 C0 7.34 0 6.68 0 6 C-0.66 5.67 -1.32 5.34 -2 5 C-1.34 3.35 -0.68 1.7 0 0 Z " fill="#DD47FB" transform="translate(116,224)"/>
<path d="M0 0 C1.32 0.33 2.64 0.66 4 1 C3.34 2.98 2.68 4.96 2 7 C0 5 0 5 -0.125 2.375 C-0.08375 1.59125 -0.0425 0.8075 0 0 Z " fill="#1509E0" transform="translate(162,175)"/>
<path d="M0 0 C2 2 2 2 2.4375 4 C2.87458708 6.38640738 2.87458708 6.38640738 6 8 C5.34 8 4.68 8 4 8 C3.67 8.66 3.34 9.32 3 10 C3 9.34 3 8.68 3 8 C2.01 7.67 1.02 7.34 0 7 C0 4.69 0 2.38 0 0 Z " fill="#4830CE" transform="translate(177,155)"/>
<path d="M0 0 C2 1.75 2 1.75 4 4 C4 5.32 4 6.64 4 8 C3.01 7.67 2.02 7.34 1 7 C0.67 4.69 0.34 2.38 0 0 Z " fill="#7234D1" transform="translate(153,109)"/>
<path d="M0 0 C1.32 0 2.64 0 4 0 C4 0.66 4 1.32 4 2 C4.66 2.33 5.32 2.66 6 3 C3.69 3.66 1.38 4.32 -1 5 C-0.67 3.35 -0.34 1.7 0 0 Z " fill="#EE79F4" transform="translate(98,94)"/>
<path d="M0 0 C0.88492145 2.47778006 1.11637742 3.66056586 0.25 6.1875 C-1 8 -1 8 -4 9 C-2.94124926 5.59687262 -1.99097846 2.98646769 0 0 Z " fill="#CF77E4" transform="translate(120,48)"/>
<path d="M0 0 C1.98 0.99 1.98 0.99 4 2 C4 3.65 4 5.3 4 7 C3.01 7 2.02 7 1 7 C0.67 4.69 0.34 2.38 0 0 Z " fill="#1912D8" transform="translate(197,195)"/>
<path d="M0 0 C0.66 0.33 1.32 0.66 2 1 C0.52307692 5.67692308 0.52307692 5.67692308 -2.125 7.3125 C-3.053125 7.6528125 -3.053125 7.6528125 -4 8 C-4 7.01 -4 6.02 -4 5 C-3.01 4.34 -2.02 3.68 -1 3 C-0.67 2.01 -0.34 1.02 0 0 Z " fill="#E093E8" transform="translate(104,148)"/>
<path d="M0 0 C0.33 0 0.66 0 1 0 C1.36923077 5.53846154 1.36923077 5.53846154 -0.5 7.875 C-1.2425 8.431875 -1.2425 8.431875 -2 9 C-3 6 -3 6 -1.5625 2.8125 C-1.046875 1.884375 -0.53125 0.95625 0 0 Z " fill="#EBB2EE" transform="translate(93,100)"/>
<path d="M0 0 C1.65 0 3.3 0 5 0 C5.33 1.32 5.66 2.64 6 4 C3.03 3.505 3.03 3.505 0 3 C0 2.01 0 1.02 0 0 Z " fill="#7C28E8" transform="translate(147,98)"/>
<path d="M0 0 C1.32 0.33 2.64 0.66 4 1 C4 3.31 4 5.62 4 8 C1.84622436 5.37801226 0.59927826 3.35595828 0 0 Z " fill="#9C61DD" transform="translate(143,93)"/>
<path d="M0 0 C2.4375 0.75 2.4375 0.75 5 2 C5.8125 4.125 5.8125 4.125 6 6 C4.68 6 3.36 6 2 6 C1.34 4.02 0.68 2.04 0 0 Z " fill="#211DCE" transform="translate(236,210)"/>
<path d="M0 0 C1.32 0 2.64 0 4 0 C3.34 1.98 2.68 3.96 2 6 C1.34 6 0.68 6 0 6 C0 4.02 0 2.04 0 0 Z " fill="#A553D4" transform="translate(129,206)"/>
<path d="M0 0 C2.0625 0.4375 2.0625 0.4375 4 1 C3.67 2.32 3.34 3.64 3 5 C2.01 5 1.02 5 0 5 C-0.5625 3.0625 -0.5625 3.0625 -1 1 C-0.67 0.67 -0.34 0.34 0 0 Z " fill="#974FDA" transform="translate(136,192)"/>
<path d="M0 0 C1.32 0 2.64 0 4 0 C3.34 2.64 2.68 5.28 2 8 C0 6 0 6 -0.125 2.875 C-0.08375 1.92625 -0.0425 0.9775 0 0 Z " fill="#F39CFB" transform="translate(91,163)"/>
<path d="M0 0 C-1.75 5.75 -1.75 5.75 -4 8 C-4 5.69 -4 3.38 -4 1 C-2 0 -2 0 0 0 Z " fill="#E294EA" transform="translate(110,141)"/>
<path d="M0 0 C1.32 0.99 2.64 1.98 4 3 C3.01 4.485 3.01 4.485 2 6 C1.34 6 0.68 6 0 6 C-0.38218767 4.34385343 -0.71395102 2.67542976 -1 1 C-0.67 0.67 -0.34 0.34 0 0 Z " fill="#6934D9" transform="translate(158,118)"/>
<path d="M0 0 C2.15377564 2.62198774 3.40072174 4.64404172 4 8 C3.01 8.33 2.02 8.66 1 9 C0.67 6.03 0.34 3.06 0 0 Z " fill="#6B5CD2" transform="translate(184,101)"/>
<path d="M0 0 C1.32 0 2.64 0 4 0 C2.70700306 2.88437779 1.34058637 4.87219421 -1 7 C-1.04254356 5.00045254 -1.04080783 2.99958364 -1 1 C-0.67 0.67 -0.34 0.34 0 0 Z " fill="#B068DD" transform="translate(136,85)"/>
<path d="M0 0 C2 1 2 1 2.8515625 3.06640625 C3.10679687 3.89011719 3.36203125 4.71382813 3.625 5.5625 C3.88539063 6.38878906 4.14578125 7.21507813 4.4140625 8.06640625 C4.60742188 8.70449219 4.80078125 9.34257813 5 10 C4.01 9.67 3.02 9.34 2 9 C1.26953125 6.93359375 1.26953125 6.93359375 0.8125 4.4375 C0.65394531 3.61121094 0.49539062 2.78492187 0.33203125 1.93359375 C0.16767578 0.97646484 0.16767578 0.97646484 0 0 Z " fill="#7455CE" transform="translate(165,64)"/>
<path d="M0 0 C0.6875 1.75 0.6875 1.75 1 4 C-0.3125 6.25 -0.3125 6.25 -2 8 C-2.66 8 -3.32 8 -4 8 C-2.25 2.25 -2.25 2.25 0 0 Z " fill="#C068E1" transform="translate(125,39)"/>
<path d="M0 0 C0.66 0.33 1.32 0.66 2 1 C0.25 6.75 0.25 6.75 -2 9 C-2 7.02 -2 5.04 -2 3 C-1.34 3 -0.68 3 0 3 C0 2.01 0 1.02 0 0 Z " fill="#C277DE" transform="translate(125,217)"/>
<path d="M0 0 C0.66 0.33 1.32 0.66 2 1 C2 3.31 2 5.62 2 8 C0.68 7.01 -0.64 6.02 -2 5 C-1.34 3.35 -0.68 1.7 0 0 Z " fill="#B03BEA" transform="translate(125,210)"/>
<path d="M0 0 C0.33 0.66 0.66 1.32 1 2 C1.66 2 2.32 2 3 2 C3 3.98 3 5.96 3 8 C1 7 1 7 -0.125 3.9375 C-0.41375 2.968125 -0.7025 1.99875 -1 1 C-0.67 0.67 -0.34 0.34 0 0 Z " fill="#765BD6" transform="translate(174,151)"/>
<path d="M0 0 C0.99 0 1.98 0 3 0 C2.625 2.9375 2.625 2.9375 2 6 C1.01 6.495 1.01 6.495 0 7 C-0.38133299 5.0085944 -0.71325582 3.00720923 -1 1 C-0.67 0.67 -0.34 0.34 0 0 Z " fill="#D946F5" transform="translate(117,114)"/>
</svg>
